<?xml version="1.0" standalone="no"?>
<!DOCTYPE svg PUBLIC "-//W3C//DTD SVG 1.1//EN" "http://www.w3.org/Graphics/SVG/1.1/DTD/svg11.dtd">
<svg xmlns="http://www.w3.org/2000/svg"><metadata>This SVG WebFont was generated by YouWorkForThem.
Copyright (c) 2009 by International TypeFounders, Inc. All rights reserved.</metadata><defs><font horiz-adv-x="614" id="ywftsvg"><font-face ascent="1536" bbox="-125.67 -512 2138 1866" cap-height="1366" descent="-512" font-family="" font-stretch="normal" font-weight="700" panose-1="2 0 0 0 0 0 0 0 0 0" underline-position="0" underline-thickness="0" unicode-range="U+000D-FB02" units-per-em="2048" x-height="1057"/><missing-glyph d="M61 -219v1714h865v-1714h-865zM150 1407v-1538h686v1538h-686z" horiz-adv-x="987"/><glyph d="M526 1057q68 0 68 -68v-143q0 -68 -68 -68h-88v-710q0 -68 -69 -68h-211q-68 0 -68 68v710h-22q-68 0 -68 68v143q0 68 68 68h22v71q0 127 87 194t206 67q205 0 205 -99v-131q0 -57 -51 -57h-29q-54 0 -68 -45h86zM993 987v-919q0 -68 -69 -68h-211q-68 0 -68 68v919 q0 70 68 70h211q69 0 69 -70zM993 1296v-127q0 -68 -69 -67h-211q-68 0 -68 67v127q0 70 68 70h211q69 0 69 -70z" glyph-name="uniFB01" horiz-adv-x="1034" unicode="fi"/><glyph d="M526 1057q68 0 68 -68v-143q0 -68 -68 -68h-88v-710q0 -68 -69 -68h-211q-68 0 -68 68v710h-22q-68 0 -68 68v143q0 68 68 68h22v71q0 127 87 194t206 67q205 0 205 -99v-131q0 -57 -51 -57h-29q-54 0 -68 -45h86zM993 1296v-1228q0 -68 -69 -68h-211q-68 0 -68 68v1228 q0 70 68 70h211q69 0 69 -70z" glyph-name="uniFB02" horiz-adv-x="1034" unicode="fl"/><glyph d="M61 -219v1714h865v-1714h-865zM150 1407v-1538h686v1538h-686z" glyph-name=".notdef" horiz-adv-x="987"/><glyph glyph-name="glyph1" horiz-adv-x="0"/><glyph glyph-name="glyph1" horiz-adv-x="0"/><glyph glyph-name="glyph2" horiz-adv-x="681"/><glyph glyph-name="space" horiz-adv-x="348" unicode=" "/><glyph d="M184 410q-66 0 -69 67l-62 819q-6 70 62 70h241q66 0 60 -70l-62 -819q-6 -68 -67 -67h-103zM395 240v-172q0 -68 -67 -68h-185q-70 0 -69 68v172q0 68 69 67h185q67 1 67 -67z" glyph-name="exclam" horiz-adv-x="468" unicode="!"/><glyph d="M195 813h-54q-63 0 -69 68l-41 417q0 68 69 68h136q67 0 67 -68l-41 -417q-6 -68 -67 -68zM541 813h-54q-63 0 -69 68l-41 417q-6 68 69 68h136q73 0 67 -68l-41 -417q-6 -68 -67 -68z" glyph-name="quotedbl" horiz-adv-x="679" unicode="&quot;"/><glyph d="M59 647q-66 0 -57 70l6 43q10 68 78 67h96l21 146h-97q-68 0 -59 69l6 43q10 68 78 68h98l21 143q8 70 78 70h45q68 0 59 -70l-20 -143h120l21 143q8 70 78 70h45q68 0 59 -70l-20 -143h96q70 0 59 -68l-6 -43q-8 -70 -78 -69h-98l-20 -146h98q70 0 59 -67l-6 -43 q-8 -70 -80 -70h-96l-20 -143q-8 -68 -78 -68h-45q-70 0 -60 68l21 143h-121l-21 -143q-8 -68 -77 -68h-45q-70 0 -60 68l21 143h-99zM385 973l-20 -146h120l21 146h-121z" glyph-name="numbersign" horiz-adv-x="872" unicode="#"/><glyph d="M739 621q0 -266 -262 -336v-97q0 -68 -69 -67h-86q-68 0 -68 67v80q-102 10 -170 51t-68 99v92q0 33 19 51.5t43 18.5t98 -24t139 -24q90 0 91 66q0 46 -100.5 94t-166 103t-94.5 115.5t-29 133.5q0 117 62.5 196t175.5 108v96q0 70 68 69h86q70 0 69 -69v-88 q90 -14 162 -53q45 -29 45 -82v-111q0 -25 -15.5 -40t-38.5 -15t-106.5 21.5t-128.5 21.5t-45 -43q0 -25 40 -48.5t97.5 -50t114.5 -64.5t97 -107.5t40 -163.5z" glyph-name="dollar" horiz-adv-x="753" unicode="$"/><glyph d="M1122 551v-283q0 -94 72 -94t72 94v283q0 94 -72 94t-72 -94zM1491 551v-283q0 -137 -81 -211.5t-216 -74.5t-216 74.5t-81 211.5v283q0 137 81 212t216 75t216 -75t81 -212zM256 1100v-283q0 -94 72 -94t71 94v283q0 94 -69 94q-74 0 -74 -94zM625 1100v-283 q0 -137 -81 -212t-216 -75t-216 75t-81 212v283q0 137 81 211.5t216 74.5t216 -74.5t81 -211.5zM514 0h-86q-31 0 -45 19.5t0 48.5l535 1230q31 68 90 68h86q35 0 47 -18.5t-2 -49.5l-535 -1230q-31 -68 -90 -68z" glyph-name="percent" horiz-adv-x="1521" unicode="%"/><glyph d="M621 862h401q70 0 70 -69v-121q0 -68 -70 -68h-12q-41 0 -41 -41v-291q0 -129 -80 -200.5t-227 -71.5h-134q-192 0 -300.5 69.5t-152.5 156t-44 192.5t52 196.5t155 151.5q-115 90 -115 256t127 270.5t346 104.5q68 0 127 -8.5t117.5 -42t58.5 -91.5v-114q0 -76 -80 -76 q-16 0 -77.5 15.5t-127.5 15.5t-102.5 -34t-36.5 -88t41.5 -83t104.5 -29zM528 272h93q41 0 41 41v250q0 41 -41 41h-39q-80 0 -131.5 -50t-51.5 -128q0 -154 129 -154z" glyph-name="ampersand" horiz-adv-x="1091" unicode="&amp;"/><glyph d="M195 813h-54q-63 0 -69 68l-41 417q-6 68 69 68h136q73 0 67 -68l-41 -417q-6 -68 -67 -68z" glyph-name="quotesingle" horiz-adv-x="333" unicode="'"/><glyph d="M369 686q0 -162 18.5 -305t45 -236.5t53 -162t45 -108.5t18.5 -50q0 -43 -43 -43h-152q-51 0 -80 47q-233 387 -233 858t233 858q29 47 80 47h152q43 0 43 -43q0 -10 -18.5 -50t-45 -108.5t-53 -161.5t-45 -236.5t-18.5 -305.5z" glyph-name="parenleft" horiz-adv-x="507" unicode="("/><glyph d="M139 686q0 162 -18.5 305.5t-45 236.5t-53 161.5t-45 108.5t-18.5 50q0 43 43 43h152q51 0 79 -47q233 -387 233.5 -858t-233.5 -858q-29 -47 -79 -47h-152q-43 0 -43 43q0 10 18.5 50t45 108.5t53 162t45 236.5t18.5 305z" glyph-name="parenright" horiz-adv-x="507" unicode=")"/><glyph d="M305 733q-67 0 -59 58l20 147l-116 -92q-49 -35 -78 20l-27 49q-35 59 18 80l136 54l-136 55q-51 20 -20 80l29 47q35 57 78 22l116 -92l-20 148q-4 29 11 43t48 14h55q66 0 58 -57l-23 -150l119 94q43 35 78 -22l29 -47q31 -59 -21 -80l-137 -55l137 -54q53 -20 18 -80 l-26 -49q-29 -55 -78 -20l-119 92l23 -147q8 -57 -58 -58h-55z" glyph-name="asterisk" horiz-adv-x="663" unicode="*"/><glyph d="M309 874h115q57 0 57 -57v-158h154q57 0 57 -57v-108q0 -57 -57 -58h-154v-157q0 -57 -57 -58h-115q-57 0 -57 58v157h-154q-57 0 -57 58v108q0 57 57 57h154v158q0 57 57 57z" glyph-name="plus" horiz-adv-x="733" unicode="+"/><glyph d="M109 0q-68 0 -68 68v172q0 68 68 67h186q68 0 67 -67v-162q0 -51 -28 -92l-98 -144q-27 -39 -80 -39h-35q-25 0 -31 17.5t4 36.5l76 143h-61z" glyph-name="comma" horiz-adv-x="403" unicode=","/><glyph d="M463 453h-352q-70 0 -70 67v160q0 70 70 70h352q70 0 69 -70v-160q1 -67 -69 -67z" glyph-name="hyphen" horiz-adv-x="573" unicode="-"/><glyph d="M463 453h-352q-70 0 -70 67v160q0 70 70 70h352q70 0 69 -70v-160q1 -67 -69 -67z" glyph-name="hyphen" horiz-adv-x="573" unicode="­"/><glyph d="M362 240v-172q0 -68 -67 -68h-184q-70 0 -70 68v172q0 68 70 67h184q67 1 67 -67z" glyph-name="period" horiz-adv-x="403" unicode="."/><glyph d="M178 -82h-119q-35 0 -50 18.5t-5 49.5l436 1394q23 68 90 68h119q35 0 50.5 -18.5t5.5 -49.5l-437 -1394q-23 -68 -90 -68z" glyph-name="slash" horiz-adv-x="708" unicode="/"/><glyph d="M399 920v-474q0 -162 125 -161.5t125 161.5v474q0 162 -125 162t-125 -162zM1018 920v-474q0 -227 -134 -352t-359.5 -125t-359.5 125t-134 352v474q0 227 134 352t359.5 125t359.5 -125t134 -352z" glyph-name="zero" horiz-adv-x="1048" unicode="0"/><glyph d="M512 1178v-1110q0 -68 -68 -68h-225q-70 0 -69 68v962q0 27 -9.5 34t-31.5 7h-41q-68 0 -68 70v155q0 70 68 70h256q102 0 145 -48t43 -140z" glyph-name="one" horiz-adv-x="563" unicode="1"/><glyph d="M10 70v133q0 156 55.5 275.5t133 187t155.5 119t133.5 102.5t55.5 106q0 102 -178 103q-57 0 -133 -18.5t-93 -18.5q-80 0 -80 76v120q0 43 35 74t114 49.5t175 18.5q246 0 382 -105.5t136 -298.5q0 -92 -37 -168.5t-123.5 -153t-214 -155.5t-127.5 -174q0 -25 5.5 -33 t23.5 -8h385q70 0 70 -68v-163q0 -70 -70 -70h-733q-70 0 -70 70z" glyph-name="two" horiz-adv-x="921" unicode="2"/><glyph d="M315 580h-67q-70 0 -70 69v119q0 70 70 70h74q78 0 117.5 42t39.5 95t-36.5 87t-102.5 34t-127 -15.5t-78 -15.5q-80 0 -80 76v114q0 57 58.5 91t118 42.5t126.5 8.5q219 0 346 -104.5t127 -277.5t-135 -288q195 -111 195 -330q0 -178 -128 -303t-362 -125 q-150 0 -275.5 51.5t-125.5 129.5v116q0 76 80 76q20 0 108 -35t164 -35t122 43t46 109t-54.5 111t-150.5 45z" glyph-name="three" horiz-adv-x="911" unicode="3"/><glyph d="M893 147v-79q0 -68 -70 -68h-225q-68 0 -68 68v79q0 41 -41 41h-415q-74 0 -74 66v127q0 43 25 96l399 819q35 70 117 70h282q70 0 70 -70v-766q0 -41 41 -41h12q70 0 70 -69v-164q0 -68 -70 -68h-12q-41 0 -41 -41zM375 489h114q41 0 41 41v363l-174 -363 q-18 -41 19 -41z" glyph-name="four" horiz-adv-x="1015" unicode="4"/><glyph d="M393 1018v-53q0 -33 35 -35q209 -12 335 -135t126 -353t-153.5 -351.5t-385.5 -121.5q-162 0 -246 36t-84 97v123q0 76 80 76q16 0 85 -15.5t130 -15.5q205 0 205 180t-184 179q-61 0 -125.5 -15.5t-88.5 -15.5t-47.5 20.5t-23.5 55.5v622q0 70 68 70h633q68 0 67 -70 v-170q0 -68 -67 -67h-318q-41 0 -41 -41z" glyph-name="five" horiz-adv-x="909" unicode="5"/><glyph d="M1008 580v-134q0 -227 -134.5 -352t-359.5 -125t-359.5 125t-134.5 352v134q0 143 48.5 298.5t117 269.5t142 188.5t125.5 74.5h155q59 0 60 -45q0 -23 -15 -43q-98 -141 -159 -266h20q225 0 359.5 -125t134.5 -352zM389 580v-134q0 -162 125 -161.5t125 161.5v134 q0 162 -125 162t-125 -162z" glyph-name="six" horiz-adv-x="1028" unicode="6"/><glyph d="M371 0h-250q-72 0 -47 70l366 948q16 41 -22 41h-348q-70 0 -70 67v170q0 70 70 70h727q70 0 69 -70v-133q1 -53 -22 -108l-379 -985q-25 -70 -94 -70z" glyph-name="seven" horiz-adv-x="866" unicode="7"/><glyph d="M504 -31q-215 0 -354.5 117t-139.5 328t144 319q-100 104 -100.5 268t114.5 280t336 116t335.5 -116t114.5 -279t-100 -269q143 -109 143 -319t-139 -327.5t-354 -117.5zM503.5 571q-59.5 0 -92 -39.5t-32.5 -110.5t32.5 -111t92 -40t92.5 40t33 111t-33 110.5 t-92.5 39.5zM504 1096q-94 0 -94 -121q0 -45 21.5 -80t72.5 -35t72.5 35t21.5 80q0 121 -94 121z" glyph-name="eight" horiz-adv-x="1007" unicode="8"/><glyph d="M20 801v133q0 227 134.5 352t359.5 125t359.5 -125t134.5 -352v-133q0 -137 -48.5 -292t-117 -270.5t-142 -192.5t-125.5 -77h-155q-59 0 -60 45q0 23 15 43q100 147 160 267h-21q-225 0 -359.5 125t-134.5 352zM639 801v133q0 162 -125 162t-125 -162v-133 q0 -162 125 -162t125 162z" glyph-name="nine" horiz-adv-x="1028" unicode="9"/><glyph d="M362 240v-172q0 -68 -67 -68h-184q-70 0 -70 68v172q0 68 70 67h184q67 1 67 -67zM362 766v-172q0 -68 -67 -68h-184q-70 0 -70 68v172q0 68 70 68h184q67 0 67 -68z" glyph-name="colon" horiz-adv-x="403" unicode=":"/><glyph d="M362 766v-172q0 -68 -67 -68h-184q-70 0 -70 68v172q0 68 70 68h184q67 0 67 -68zM109 0q-68 0 -68 68v172q0 68 68 67h186q68 0 67 -67v-162q0 -51 -28 -92l-98 -144q-27 -39 -80 -39h-35q-25 0 -31 17.5t4 36.5l76 143h-61z" glyph-name="semicolon" horiz-adv-x="403" unicode=";"/><glyph d="M41 502v123q0 43 57 67l537 238q27 12 42 -2.5t15 -42.5v-109q0 -49 -57 -74l-365 -139l365 -139q57 -25 57 -74v-108q0 -29 -15 -43.5t-42 -1.5l-537 237q-57 25 -57 68z" glyph-name="less" horiz-adv-x="733" unicode="&lt;"/><glyph d="M692 754v-109q0 -57 -57 -57h-537q-57 0 -57 57v109q0 57 57 57h537q57 0 57 -57zM692 451v-109q0 -57 -57 -57h-537q-57 0 -57 57v109q0 57 57 57h537q57 0 57 -57z" glyph-name="equal" horiz-adv-x="733" unicode="="/><glyph d="M692 625v-123q0 -43 -57 -68l-537 -237q-27 -12 -42 2t-15 43v108q0 49 57 74l365 139l-365 139q-57 25 -57 74v109q0 29 15.5 43t41.5 2l537 -238q57 -24 57 -67z" glyph-name="greater" horiz-adv-x="733" unicode=">"/><glyph d="M516 240v-172q0 -68 -67 -68h-185q-70 0 -69 68v172q0 68 69 67h185q67 1 67 -67zM236 475q0 104 28.5 182t69.5 120t82 75t69.5 66.5t28.5 74.5q0 102 -178 103q-57 0 -133 -15.5t-92 -15.5q-80 0 -80 76v114q0 53 82 97.5t241 44.5q240 0 371 -99.5t131 -253.5 q0 -96 -38 -167.5t-93 -114.5t-149 -107.5t-101 -177.5q-2 -68 -67 -67h-103q-69 -1 -69 65z" glyph-name="question" horiz-adv-x="886" unicode="?"/><glyph d="M690 844q0 31 -90 30q-49 0 -97.5 -14t-60.5 -14t-24 10t-12 29v73q0 88 212 89q103 0 209.5 -44.5t106.5 -191.5v-295q0 -27 17.5 -42t41.5 -15q55 0 56 69v289q0 213 -117 310.5t-285 97.5t-284.5 -97.5t-116.5 -310.5v-266q0 -231 109.5 -334.5t291.5 -103.5 q55 0 97 11t57 -15l26 -54q6 -10 7 -18q0 -37 -76 -52.5t-135 -15.5q-272 0 -427 143.5t-155 438.5v266q0 346 207.5 463t398.5 117t398.5 -117t207.5 -463v-270q0 -127 -72.5 -207t-191.5 -80q-160 0 -244 98q-63 -80 -173 -80t-171 72t-61 192t82 189.5t213 85.5 q55 8 55 27zM584 545q0 -68 53 -68t53 68v123q-106 -29 -106 -123z" glyph-name="at" horiz-adv-x="1294" unicode="@"/><glyph d="M633 328h-189q-29 0 -34 -31l-48 -229q-12 -68 -90 -68h-241q-31 0 -42.5 20.5t-4.5 47.5l295 1228q16 70 88 70h338q72 0 88 -70l290 -1228q6 -27 -5 -47.5t-42 -20.5h-233q-74 0 -90 68l-45 229q-6 31 -35 31zM502 600h76q32 0 24 33l-61 309l-64 -309q-8 -33 25 -33z " glyph-name="A" horiz-adv-x="1067" unicode="A"/><glyph d="M461 848h55q53 0 88 30.5t35 82t-35 81t-88 29.5h-55q-41 0 -41 -41v-141q0 -41 41 -41zM1034 406q0 -190 -123 -298t-360 -108h-432q-68 0 -68 68v1228q0 70 68 70h397q215 0 349 -111.5t134 -296.5q0 -82 -34.5 -147.5t-69.5 -89.5l-35 -27q6 -4 18.5 -11t84 -71 t71.5 -206zM461 295h69q66 0 105 36t39 93t-39 93t-105 36h-69q-41 0 -41 -41v-176q0 -41 41 -41z" glyph-name="B" horiz-adv-x="1050" unicode="B"/><glyph d="M31 438v490q0 229 136 349t361 120q166 0 263.5 -37t97.5 -96v-123q0 -76 -80 -76q-16 0 -89.5 15.5t-149.5 15.5t-123.5 -45t-47.5 -158v-420q0 -113 47.5 -158t123.5 -45t149.5 15.5t89.5 15.5q80 0 80 -76v-123q0 -59 -97.5 -96t-263.5 -37q-225 0 -361 120t-136 349z " glyph-name="C" horiz-adv-x="909" unicode="C"/><glyph d="M119 1366h440q215 0 350 -126t135 -351v-412q0 -225 -135 -351t-350 -126h-440q-68 0 -68 68v1228q0 70 68 70zM559 1051h-106q-41 0 -41 -41v-654q0 -41 41 -41h106q125 0 125 162v412q0 162 -125 162z" glyph-name="D" horiz-adv-x="1075" unicode="D"/><glyph d="M918 231v-163q0 -68 -68 -68h-731q-68 0 -68 68v1228q0 70 68 70h702q70 0 70 -70v-163q0 -68 -70 -68h-360q-41 0 -41 -41v-119q0 -41 41 -41h246q68 0 67 -69v-164q0 -68 -67 -68h-246q-41 0 -41 -41v-180q0 -41 41 -41h389q68 0 68 -70z" glyph-name="E" horiz-adv-x="927" unicode="E"/><glyph d="M870 1296v-161q0 -70 -69 -70h-340q-41 0 -41 -41v-143q0 -41 41 -41h254q68 0 67 -68v-166q0 -68 -67 -67h-254q-41 0 -41 -41v-430q0 -68 -68 -68h-233q-68 0 -68 68v1228q0 70 68 70h682q69 0 69 -70z" glyph-name="F" horiz-adv-x="870" unicode="F"/><glyph d="M1028 791v-353q0 -227 -135 -350t-349 -123t-363.5 125t-149.5 348v490q0 229 136 349t361 120q166 0 263.5 -37t97.5 -96v-123q0 -76 -80 -76q-16 0 -89.5 15.5t-149.5 15.5t-123.5 -45t-47.5 -158v-455q0 -86 40.5 -129t102.5 -43t100 44t38 128v78q0 41 -41 41h-55 q-70 0 -70 68v163q0 70 70 70h377q67 1 67 -67z" glyph-name="G" horiz-adv-x="1058" unicode="G"/><glyph d="M1063 1296v-1228q0 -68 -68 -68h-233q-68 0 -68 68v438q0 41 -41 41h-192q-41 0 -41 -41v-438q0 -68 -68 -68h-233q-68 0 -68 68v1228q0 70 68 70h233q68 0 68 -70v-395q0 -41 41 -41h192q41 0 41 41v395q0 70 68 70h233q68 0 68 -70z" glyph-name="H" horiz-adv-x="1114" unicode="H"/><glyph d="M420 1296v-1228q0 -68 -70 -68h-231q-68 0 -68 68v1228q0 70 68 70h231q70 0 70 -70z" glyph-name="I" horiz-adv-x="471" unicode="I"/><glyph d="M190 1296q0 70 68 70h231q70 0 70 -70v-1005q0 -147 -85 -234.5t-228 -87.5q-102 0 -174 29t-72 90v125q0 61 57 61l64 -4q70 0 69 72v954z" glyph-name="J" horiz-adv-x="610" unicode="J"/><glyph d="M412 68q0 -68 -68 -68h-225q-68 0 -68 68v1228q0 70 68 70h225q68 0 68 -70v-368l284 411q18 27 70 27h242q41 0 52 -27.5t-9 -56.5l-336 -485l375 -719q16 -37 2.5 -57.5t-43.5 -20.5h-240q-51 0 -72.5 13.5t-38.5 47.5l-206 412l-80 -115v-290z" glyph-name="K" horiz-adv-x="1079" unicode="K"/><glyph d="M788 0h-669q-68 0 -68 68v1228q0 70 68 70h231q70 0 70 -70v-954q0 -41 41 -41h327q70 0 70 -68v-163q0 -70 -70 -70z" glyph-name="L" horiz-adv-x="858" unicode="L"/><glyph d="M684 309h-47q-47 0 -72 49l-155 295v-585q0 -68 -68 -68h-223q-68 0 -68 68v1228q0 70 68 70h231q43 0 61.5 -14.5t30.5 -42.5l224 -422l233 422q10 20 24.5 38.5t67.5 18.5h232q68 0 67 -70v-1228q0 -68 -67 -68h-234q-68 0 -67 68v585l-166 -295q-27 -49 -72 -49z" glyph-name="M" horiz-adv-x="1341" unicode="M"/><glyph d="M713 1298q0 68 67 68h224q68 0 67 -68v-1228q0 -70 -67 -70h-207q-51 0 -76 13.5t-43 54.5l-268 596v-596q0 -68 -68 -68h-223q-68 0 -68 68v1228q0 70 68 70h207q51 0 75.5 -13.5t42.5 -54.5l269 -598v598z" glyph-name="N" horiz-adv-x="1122" unicode="N"/><glyph d="M399 920v-474q0 -162 125 -161.5t125 161.5v474q0 162 -125 162t-125 -162zM1018 920v-474q0 -227 -134 -352t-359.5 -125t-359.5 125t-134 352v474q0 227 134 352t359.5 125t359.5 -125t134 -352z" glyph-name="O" horiz-adv-x="1048" unicode="O"/><glyph d="M461 813h65q53 0 88 30.5t35 88t-34.5 88.5t-88.5 31h-65q-41 0 -41 -41v-156q0 -41 41 -41zM420 457v-389q0 -68 -70 -68h-231q-68 0 -68 68v1228q0 70 68 70h407q207 0 345.5 -115.5t138.5 -321.5t-127 -318.5t-357 -112.5h-65q-41 0 -41 -41z" glyph-name="P" horiz-adv-x="1030" unicode="P"/><glyph d="M1018 920v-474q0 -178 -84 -293.5t-232 -158.5v-131q0 -68 -67 -68h-221q-68 0 -68 68v131q-147 43 -231 158.5t-84 293.5v474q0 227 134 352t359.5 125t359.5 -125t134 -352zM399 920v-474q0 -162 125 -161.5t125 161.5v474q0 162 -125 162t-125 -162z" glyph-name="Q" horiz-adv-x="1048" unicode="Q"/><glyph d="M420 457v-389q0 -68 -70 -68h-231q-68 0 -68 68v1228q0 70 68 70h428q207 0 345 -115.5t138 -318.5q0 -258 -190 -367l221 -497q10 -25 -2 -46.5t-47 -21.5h-232q-59 0 -88 68l-168 395q-14 35 -59 35t-45 -41zM461 813h86q53 0 88 30.5t35 88t-35 88.5t-88 31h-86 q-41 0 -41 -41v-156q0 -41 41 -41z" glyph-name="R" horiz-adv-x="1056" unicode="R"/><glyph d="M899 412q0 -205 -142.5 -323t-345.5 -118t-307 69t-104 138v103q0 74 66 73q27 0 124 -41t180 -41t127 36t44 96t-53.5 101.5t-129 77t-152.5 83t-130 133.5t-53 205q0 186 129 288.5t323 102.5t287.5 -63.5t93.5 -117.5v-110q0 -33 -19.5 -50.5t-39.5 -17.5t-116.5 29 t-172.5 29q-127 0 -127 -88q0 -43 53 -78t129 -71t153 -84t130 -141t53 -220z" glyph-name="S" horiz-adv-x="919" unicode="S"/><glyph d="M70 1366h802q70 0 70 -70v-163q0 -68 -70 -68h-176q-41 0 -41 -41v-956q0 -68 -67 -68h-232q-70 0 -69 68v956q0 41 -41 41h-176q-70 0 -70 68v163q0 70 70 70z" glyph-name="T" horiz-adv-x="942" unicode="T"/><glyph d="M545 -31q-217 0 -355.5 126t-138.5 351v850q0 70 68 70h231q70 0 70 -70v-850q0 -162 125 -161.5t125 161.5v850q0 70 69 70h232q68 0 67 -70v-850q0 -225 -138 -351t-355 -126z" glyph-name="U" horiz-adv-x="1089" unicode="U"/><glyph d="M807 1366h225q76 0 58 -70l-330 -1228q-18 -68 -88 -68h-281q-70 0 -88 68l-319 1222q-8 33 7 54.5t50 21.5h235q74 0 91 -70l172 -737l178 737q16 70 90 70z" glyph-name="V" horiz-adv-x="1073" unicode="V"/><glyph d="M608 1317q0 49 74 49h199q53 0 67.5 -14.5t22.5 -61.5l112 -618l142 637q20 57 90 57h201q68 0 70 -28t-15 -78l-307 -1172q-23 -88 -84 -88h-226q-49 0 -64.5 14.5t-27.5 71.5l-65 309l-97 -329q-18 -66 -82 -66h-210q-47 0 -68 20.5t-33 65.5l-321 1194q-10 43 4 64.5 t59 21.5h213q41 0 57.5 -12.5t26.5 -53.5l197 -759l131 446l-58 279q-8 35 -8 51z" glyph-name="W" horiz-adv-x="1566" unicode="W"/><glyph d="M66 1366h266q61 0 94 -70l123 -266l125 266q33 70 94 70h248q51 0 64.5 -29.5t-7.5 -60.5l-301 -580l315 -606q20 -31 7 -60.5t-64 -29.5h-266q-61 0 -94 70l-135 286l-134 -286q-33 -70 -94 -70h-248q-51 0 -64 29.5t7 60.5l309 598l-303 588q-20 31 -6.5 60.5 t64.5 29.5z" glyph-name="X" horiz-adv-x="1089" unicode="X"/><glyph d="M692 438v-370q0 -68 -67 -68h-228q-68 0 -67 68v372q0 66 -33 135l-305 703q-16 39 -6 63.5t47 24.5h231q39 0 55.5 -11.5t28.5 -43.5l172 -426l182 426q12 33 29 44t55 11h222q37 0 47 -24.5t-6 -63.5l-316 -703q-41 -86 -41 -137z" glyph-name="Y" horiz-adv-x="1040" unicode="Y"/><glyph d="M866 0h-786q-70 0 -70 70v133q0 70 23 108l454 754h-387q-70 0 -69 68v163q0 70 69 70h742q70 0 69 -70v-133q0 -70 -22 -108l-457 -754h434q70 0 70 -68v-163q0 -70 -70 -70z" glyph-name="Z" horiz-adv-x="946" unicode="Z"/><glyph d="M596 -61v-89q0 -70 -68 -69h-397q-70 0 -70 69v1672q0 70 70 69h397q68 0 68 -69v-88q0 -68 -68 -68h-139v-1360h139q68 1 68 -67z" glyph-name="bracketleft" horiz-adv-x="595" unicode="["/><glyph d="M59 1448h119q68 0 90 -68l437 -1394q10 -31 -5.5 -49.5t-50.5 -18.5h-119q-67 0 -90 68l-436 1394q-10 31 5.5 49.5t49.5 18.5z" glyph-name="backslash" horiz-adv-x="708" unicode="\"/><glyph d="M0 -150v89q0 68 68 67h139v1360h-139q-68 0 -68 68v88q0 70 68 69h397q70 0 70 -69v-1672q0 -70 -70 -69h-397q-68 -1 -68 69z" glyph-name="bracketright" horiz-adv-x="595" unicode="]"/><glyph d="M57 795q-27 0 -40 19.5t1 39.5l269 399q33 51 84 52h250q51 0 84 -52l268 -399q14 -20 1 -39.5t-40 -19.5h-109q-55 0 -80 30l-249 308l-250 -308q-25 -31 -80 -30h-109z" glyph-name="asciicircum" horiz-adv-x="991" unicode="^"/><glyph d="M831 -299h-761q-70 0 -70 68v77q0 70 70 70h761q70 0 70 -70v-77q0 -68 -70 -68z" glyph-name="underscore" horiz-adv-x="901" unicode="_"/><glyph d="M160 1425h202q59 0 76 -51l54 -174q8 -25 -2.5 -42t-36.5 -17h-72q-55 -1 -80 30l-168 197q-18 20 -11 38.5t38 18.5z" glyph-name="grave" unicode="`"/><glyph d="M20 342q0 385 500 416q-12 74 -139 73q-59 0 -129 -20t-86 -20t-33.5 14t-17.5 41v104q0 127 303 127q148 0 253 -44t151 -115.5t46 -176.5v-671q0 -70 -67 -70h-170q-61 0 -70 53q-82 -74 -201 -73q-164 0 -252 101t-88 261zM369 360q0 -98 75.5 -98t75.5 98v175 q-74 -20 -112.5 -59.5t-38.5 -115.5z" glyph-name="a" horiz-adv-x="905" unicode="a"/><glyph d="M889 696v-336q0 -176 -80 -278t-240 -102q-119 0 -221 92q0 -72 -69 -72h-170q-68 0 -68 70v1226q0 70 68 70h210q70 0 70 -70v-280q84 61 180 61q160 0 240 -102.5t80 -278.5zM465 795q-35 0 -55.5 -23.5t-20.5 -62.5v-349q0 -98 76 -98t76 98v336q0 99 -76 99z" glyph-name="b" horiz-adv-x="919" unicode="b"/><glyph d="M705 182v-86q0 -117 -277 -116q-174 0 -285.5 85t-111.5 259v409q0 174 111.5 259t285.5 85q276 0 277 -116v-87q0 -39 -20.5 -63.5t-57.5 -24.5l-131 13q-117 0 -117 -121v-299q0 -121 117 -121l131 12q37 0 57.5 -24.5t20.5 -63.5z" glyph-name="c" horiz-adv-x="714" unicode="c"/><glyph d="M31 360v336q0 176 79.5 278.5t239.5 102.5q92 0 180 -61v280q0 70 70 70h211q68 0 68 -70v-1226q0 -70 -68 -70h-170q-70 0 -70 70q-111 -90 -221 -90q-160 0 -239.5 102t-79.5 278zM454.5 795q-75.5 0 -75.5 -99v-336q0 -98 76 -98q70 0 75 84v350q0 99 -75.5 99z" glyph-name="d" horiz-adv-x="919" unicode="d"/><glyph d="M758 430h-400v-51q0 -123 172 -123q47 0 111.5 17.5t92.5 17.5t44.5 -20.5t16.5 -47.5v-86q0 -68 -80 -112.5t-221 -44.5q-215 0 -339 107.5t-124 318.5v307q0 176 113.5 270t283.5 94t283.5 -94t113.5 -270v-215q1 -68 -67 -68zM358 702v-24h158v24q0 117 -79 117 t-79 -117z" glyph-name="e" horiz-adv-x="856" unicode="e"/><glyph d="M526 1057q68 0 68 -68v-143q0 -68 -68 -68h-88v-710q0 -68 -69 -68h-211q-68 0 -68 68v710h-22q-68 0 -68 68v143q0 68 68 68h22v71q0 127 87 194t206 67q205 0 205 -99v-131q0 -57 -51 -57h-29q-54 0 -68 -45h86z" glyph-name="f" horiz-adv-x="604" unicode="f"/><glyph d="M31 483v213q0 176 79.5 278.5t239.5 102.5q53 0 117.5 -25.5t101.5 -68.5q2 74 72 74h170q68 0 68 -70v-897q0 -84 -33 -150.5t-80 -104.5t-133.5 -69.5t-212.5 -31.5q-127 0 -211 31.5t-84 95.5v110q0 29 18.5 47.5t37.5 18.5t88 -21.5t120 -21.5q141 0 141 96v72 q-84 -59 -180 -60q-160 0 -239.5 102.5t-79.5 278.5zM454.5 385q75.5 0 75.5 98v226q0 39 -21.5 62.5t-53.5 23.5q-76 0 -76 -99v-213q0 -98 75.5 -98z" glyph-name="g" horiz-adv-x="919" unicode="g"/><glyph d="M541 68v632q0 98 -76 99q-35 0 -55.5 -23.5t-20.5 -62.5v-645q0 -68 -70 -68h-210q-68 0 -68 68v1228q0 70 68 70h210q70 0 70 -70v-280q84 61 180 61q160 0 240 -102.5t80 -278.5v-628q0 -68 -70 -68h-211q-67 0 -67 68z" glyph-name="h" horiz-adv-x="923" unicode="h"/><glyph d="M389 987v-919q0 -68 -70 -68h-210q-68 0 -68 68v919q0 70 68 70h210q70 0 70 -70zM389 1296v-127q0 -68 -70 -67h-210q-68 0 -68 67v127q0 70 68 70h210q70 0 70 -70z" glyph-name="i" horiz-adv-x="430" unicode="i"/><glyph d="M389 1296v-127q0 -68 -70 -67h-210q-68 0 -68 67v127q0 70 68 70h210q70 0 70 -70zM389 989v-954q0 -141 -74.5 -221t-218.5 -80q-205 0 -205 98v131q0 57 52 57h28q70 0 70 64v905q0 68 70 68h211q67 0 67 -68z" glyph-name="j" horiz-adv-x="430" unicode="j"/><glyph d="M662 1057h184q51 0 67.5 -36t-6.5 -63l-258 -360l297 -502q20 -29 5 -62.5t-64 -33.5h-193q-82 0 -121 68l-137 233l-47 -68v-165q0 -68 -67 -68h-213q-68 0 -68 68v1228q0 70 68 70h213q68 0 67 -70v-536l152 229q43 68 121 68z" glyph-name="k" horiz-adv-x="948" unicode="k"/><glyph d="M389 1296v-1228q0 -68 -70 -68h-210q-68 0 -68 68v1228q0 70 68 70h210q70 0 70 -70z" glyph-name="l" horiz-adv-x="430" unicode="l"/><glyph d="M1040 68v632q0 98 -75.5 98.5t-75.5 -98.5v-632q0 -68 -70 -68h-211q-68 0 -67 68v632q0 98 -76 99q-35 0 -55.5 -23.5t-20.5 -62.5v-645q0 -68 -70 -68h-210q-68 0 -68 68v919q0 70 68 70h170q70 0 69 -74q94 94 221 94q166 0 252 -119q113 119 261 119t227.5 -102.5 t79.5 -278.5v-628q0 -68 -70 -68h-211q-68 0 -68 68z" glyph-name="m" horiz-adv-x="1423" unicode="m"/><glyph d="M541 68v632q0 98 -76 99q-35 0 -55.5 -23.5t-20.5 -62.5v-645q0 -68 -70 -68h-210q-68 0 -68 68v919q0 70 68 70h170q70 0 69 -74q94 94 238 94t223.5 -102.5t79.5 -278.5v-628q0 -68 -70 -68h-211q-67 0 -67 68z" glyph-name="n" horiz-adv-x="923" unicode="n"/><glyph d="M31 328v401q0 178 122.5 263t288.5 85t289 -85t123 -263v-401q0 -178 -123 -263t-289 -85t-288.5 85t-122.5 263zM369 729v-401q0 -104 73.5 -104.5t73.5 104.5v401q0 104 -73.5 104t-73.5 -104z" glyph-name="o" horiz-adv-x="884" unicode="o"/><glyph d="M889 696v-336q0 -176 -80 -278t-240 -102q-100 0 -180 59v-215q0 -70 -70 -70h-210q-68 0 -68 70v1163q0 70 68 70h170q70 0 69 -72q92 92 236 92t224.5 -102.5t80.5 -278.5zM465 262q76 0 76 98v336q0 98 -76 99q-35 0 -55.5 -23.5t-20.5 -62.5v-349q0 -98 76 -98z" glyph-name="p" horiz-adv-x="919" unicode="p"/><glyph d="M31 360v336q0 176 79.5 278.5t239.5 102.5q53 0 117.5 -25.5t101.5 -68.5q2 74 72 74h170q68 0 68 -70v-1163q0 -70 -68 -70h-211q-70 0 -70 70v215q-84 -59 -180 -59q-160 0 -239.5 102t-79.5 278zM454.5 262q75.5 0 75.5 98v349q0 39 -21.5 62.5t-53.5 23.5 q-76 0 -76 -99v-336q0 -98 75.5 -98z" glyph-name="q" horiz-adv-x="919" unicode="q"/><glyph d="M629 1020v-162q0 -65 -102 -73q-60 -5 -99 -45t-39 -111v-561q0 -68 -70 -68h-210q-68 0 -68 68v919q0 70 68 70h170q70 0 69 -72q92 92 221 92q60 0 60 -57z" glyph-name="r" horiz-adv-x="628" unicode="r"/><glyph d="M743 334q0 -176 -116.5 -265t-307.5 -89q-123 0 -211 41.5t-88 109.5v92q0 33 19 51.5t43 18.5t98 -23.5t139 -23.5q90 0 91 65q0 46 -98 93t-166 103t-97 116.5t-29 134.5q0 147 98.5 233t260.5 86t264 -61q45 -29 45 -82v-111q0 -25 -15.5 -40t-38.5 -15t-106.5 21.5 t-127.5 21.5t-46 -43q0 -25 40 -48.5t97.5 -50t115 -64.5t97 -107.5t39.5 -163.5z" glyph-name="s" horiz-adv-x="753" unicode="s"/><glyph d="M90 238v540h-22q-68 0 -68 68v143q0 68 68 68h22v129q0 98 70 119l164 47q55 16 84.5 -3.5t29.5 -64.5v-227h88q68 0 68 -68v-143q0 -68 -68 -68h-88v-442q0 -72 70 -72h29q51 0 51 -57v-131q0 -96 -205 -96q-119 0 -206 65.5t-87 192.5z" glyph-name="t" horiz-adv-x="604" unicode="t"/><glyph d="M383 989v-633q0 -98 76 -98q70 0 76 84v647q0 68 69 68h211q68 0 68 -68v-919q0 -70 -68 -70h-170q-70 0 -70 70q-111 -90 -221 -90q-160 0 -239.5 102t-79.5 278v629q0 68 69 68h211q68 0 68 -68z" glyph-name="u" horiz-adv-x="923" unicode="u"/><glyph d="M690 1057h174q37 0 54.5 -23.5t3.5 -66.5l-301 -899q-25 -68 -89 -68h-167q-68 0 -89 68l-280 899q-12 43 4 66.5t53 23.5h195q74 0 90 -70l125 -493l137 493q20 70 90 70z" glyph-name="v" horiz-adv-x="919" unicode="v"/><glyph d="M1087 1057h175q35 0 52 -23.5t5 -66.5l-240 -899q-20 -68 -88 -68h-168q-68 0 -88 68l-84 311l-71 -311q-16 -68 -88 -68h-168q-68 0 -88 68l-240 899q-12 43 5 66.5t52 23.5h195q78 0 90 -70l98 -526l90 387l-30 119q-12 43 5 66.5t52 23.5h154q78 0 90 -70l100 -534 l100 534q16 70 90 70z" glyph-name="w" horiz-adv-x="1314" unicode="w"/><glyph d="M78 1057h196q59 0 97 -70l75 -139l82 139q25 39 44.5 54.5t52.5 15.5h170q45 0 60 -28t-9 -68l-238 -404l258 -461q23 -43 8.5 -69.5t-59.5 -26.5h-197q-59 0 -96 70l-98 174l-100 -174q-25 -39 -44.5 -54.5t-52.5 -15.5h-170q-45 0 -60 27.5t9 68.5l256 439l-235 426 q-23 43 -8.5 69.5t59.5 26.5z" glyph-name="x" horiz-adv-x="870" unicode="x"/><glyph d="M690 1057h174q37 0 54.5 -23.5t3.5 -66.5l-383 -1145q-25 -68 -88 -68h-160q-35 0 -56.5 19.5t-11.5 52.5l66 203l-293 938q-12 43 4 66.5t53 23.5h195q74 0 90 -70l115 -452l147 452q22 70 90 70z" glyph-name="y" horiz-adv-x="919" unicode="y"/><glyph d="M741 279q68 0 68 -70v-139q0 -70 -68 -70h-673q-68 0 -68 70v118q0 55 47 121l324 469h-283q-68 0 -68 70v139q0 70 68 70h623q68 0 67 -70v-119q0 -54 -47 -120l-323 -469h333z" glyph-name="z" horiz-adv-x="808" unicode="z"/><glyph d="M10 618v136q0 45 41 53q102 18 103 215l-21 276q0 133 92 213t258 80h78q51 0 51 -43v-82q0 -43 -51 -43q-121 0 -121 -135q0 -37 13.5 -131.5t13.5 -154.5t-21.5 -124.5t-66 -117t-96.5 -68.5l-23 -6q30 -8 69.5 -33.5t66 -58.5t49 -98.5t22.5 -125.5t-13.5 -154.5 t-13.5 -131.5q0 -135 121 -135q51 0 51 -43v-82q0 -43 -51 -43h-78q-166 0 -258 80t-92 213l21 276q0 197 -103 215q-41 8 -41 53z" glyph-name="braceleft" horiz-adv-x="571" unicode="{"/><glyph d="M369 1440v-1516q0 -68 -70 -67h-149q-68 0 -68 67v1516q0 70 68 69h149q70 1 70 -69z" glyph-name="bar" horiz-adv-x="450" unicode="|"/><glyph d="M561 754v-136q0 -45 -41 -53q-102 -18 -102 -215l20 -276q0 -133 -92 -213t-258 -80h-78q-51 0 -51 43v82q0 43 51 43q121 0 121 135q0 37 -13.5 131.5t-13.5 154.5t21.5 124.5t69.5 119t96 66.5l20 6q-30 8 -69 33.5t-65.5 58.5t-49.5 98.5t-23 125.5t13.5 154.5 t13.5 131.5q0 135 -121 135q-51 0 -51 43v82q0 43 51 43h78q166 0 258 -79.5t92 -213.5l-20 -276q0 -197 102 -215q41 -8 41 -53z" glyph-name="braceright" horiz-adv-x="571" unicode="}"/><glyph d="M852 895q0 -109 -66 -188.5t-162 -79.5t-201 51t-135 51t-50.5 -20.5t-20.5 -50.5t-45 -29h-115q-49 0 -49 63q0 119 68 192.5t172 73.5t200.5 -54t125 -54t49 21.5t20.5 56.5q0 29 43 28h117q49 0 49 -61z" glyph-name="asciitilde" horiz-adv-x="860" unicode="~"/><glyph d="M115 -309q-68 0 -62 69l62 820q4 68 69 67h103q61 1 67 -67l62 -820q6 -70 -60 -69h-241zM395 989v-172q0 -68 -67 -67h-185q-70 0 -69 67v172q0 68 69 68h185q67 0 67 -68z" glyph-name="exclamdown" horiz-adv-x="468" unicode="¡"/><glyph d="M705 614v-86q0 -100 -193 -114v-82q0 -68 -70 -68h-86q-68 0 -67 68v94q-258 63 -258 330v266q0 137 69.5 218t188.5 110v94q0 70 67 69h86q70 0 70 -69v-82q193 -14 193 -113v-86q0 -39 -20.5 -63.5t-57.5 -24.5l-131 12q-117 0 -117 -120v-156q0 -121 117 -121l131 12 q37 0 57.5 -24.5t20.5 -63.5z" glyph-name="cent" horiz-adv-x="714" unicode="¢"/><glyph d="M141 463h-69q-70 0 -70 67v48q0 70 70 69h69v74h-69q-70 0 -70 67v48q0 70 70 69h69v23q0 219 129 344t348 125q150 0 235 -36t85 -97v-101q0 -76 -80 -76q-18 0 -87 15.5t-118 15.5q-164 0 -164 -203v-10h213q70 0 70 -69v-48q0 -68 -70 -67h-213v-74h213q70 0 70 -69 v-48q0 -68 -70 -67h-213v-144q0 -41 41 -40h379q70 0 70 -68v-141q0 -70 -70 -70h-700q-68 0 -68 68v395z" glyph-name="sterling" horiz-adv-x="989" unicode="£"/><glyph d="M958 414h-264v-346q0 -68 -67 -68h-213q-68 0 -68 68v346h-244q-70 0 -69 67v47q0 70 69 70h201l-33 74h-168q-70 0 -69 67v47q0 70 69 70h86l-186 422q-16 39 -6 63.5t47 24.5h221q39 0 55.5 -11.5t28.5 -43.5l182 -447l193 447q12 33 28.5 44t55.5 11h211 q37 0 47 -24.5t-6 -63.5l-195 -422h94q70 0 70 -70v-47q0 -68 -70 -67h-180l-33 -74h213q70 0 70 -70v-47q0 -67 -70 -67z" glyph-name="yen" horiz-adv-x="1060" unicode="¥"/><glyph d="M369 1440v-641q0 -68 -70 -68h-149q-68 0 -68 68v641q0 70 68 69h149q70 1 70 -69zM369 565v-641q0 -68 -70 -67h-149q-68 0 -68 67v641q0 70 68 70h149q70 0 70 -70z" glyph-name="brokenbar" horiz-adv-x="450" unicode="¦"/><glyph d="M770 180q0 -170 -114 -258t-282 -88t-254.5 40t-86.5 101v101q0 39 19.5 55t45.5 16t103.5 -20.5t138.5 -20.5q94 0 94 74q0 35 -63.5 75t-138 77t-138 113.5t-63.5 177.5q0 152 110 233q-111 96 -111 235t103 221.5t285 82.5q127 0 201.5 -31t74.5 -80v-121 q0 -61 -63 -61q-29 0 -94.5 15.5t-119.5 15.5t-55 -48q0 -20 42 -45.5t101.5 -57.5t120 -74t102.5 -110.5t42 -154.5q0 -152 -94 -240q94 -98 94 -223zM317 671q0 -36 45.5 -70t92.5 -54q31 8 31 44t-45.5 69.5t-92.5 54.5q-31 -8 -31 -44z" glyph-name="section" horiz-adv-x="800" unicode="§"/><glyph d="M266 1339v-133q0 -53 -53 -53h-143q-51 0 -52 53v133q0 51 52 52h143q53 -1 53 -52zM594 1339v-133q0 -53 -53 -53h-144q-51 0 -51 53v133q0 51 51 52h144q53 -1 53 -52z" glyph-name="dieresis" unicode="¨"/><glyph d="M82 682q0 295 209 504t504 209t503.5 -209t208.5 -504t-208.5 -504t-503.5 -209t-504 209t-209 504zM172 682q0 -258 182.5 -440.5t440.5 -182.5t440 182.5t182 440.5t-182 440.5t-440 182.5t-440.5 -182.5t-182.5 -440.5zM737 545q0 -123 102 -123q46 0 90 9t54 9 q47 0 47 -45v-73q0 -35 -59 -57.5t-175 -22.5t-198 71.5t-82 208.5v295q0 137 82 209t200 72q232 0 232 -80v-74q0 -45 -47 -45q-10 0 -54 9.5t-90 9.5q-102 0 -102 -121v-252z" glyph-name="copyright" horiz-adv-x="1589" unicode="©"/><glyph d="M10 944q0 229 299 250q-6 45 -82 45q-35 0 -76.5 -12.5t-50.5 -12.5q-33 0 -32 33v62q0 77 181 77t225 -69.5t44 -132.5v-404q0 -41 -39 -41h-102q-37 0 -43 33q-45 -45 -131 -45t-139.5 61.5t-53.5 155.5zM219 964q0 -68 45 -67.5t45 59.5v105q-90 -29 -90 -97z" glyph-name="ordfeminine" horiz-adv-x="544" unicode="ª"/><glyph d="M266 762h199q20 0 29.5 -14.5t-2.5 -36.5l-177 -330l177 -330q12 -23 2.5 -37t-29.5 -14h-199q-31 0 -49 31l-172 297q-31 53 0 106l172 297q18 31 49 31zM659 762h199q20 0 29.5 -14.5t-2.5 -36.5l-176 -330l176 -330q12 -23 3 -37t-30 -14h-199q-31 0 -49 31l-172 297 q-31 53 0 106l172 297q18 31 49 31z" glyph-name="guillemotleft" horiz-adv-x="923" unicode="«"/><glyph d="M586 719v-174q0 -33 -33 -33h-104q-33 0 -33 33v551q0 33 33 32h192q92 0 154.5 -52t62.5 -158t-86 -152l100 -221q6 -10 -1 -21.5t-23 -11.5h-105q-25 0 -38 33l-76 178q-3 10 -23 10t-20 -14zM641 881q53 0 53 37.5t-15 51t-38 13.5h-39q-16 0 -16 -16v-70 q0 -16 16 -16h39zM51 823.5q0 237.5 168 405.5t405.5 168t405.5 -168t168 -405.5t-168 -405.5t-405.5 -168t-405.5 168t-168 405.5zM143 823.5q0 -200.5 141.5 -341t340 -140.5t340 140.5t141.5 341t-141.5 341t-340 140.5t-340 -140.5t-141.5 -341z" glyph-name="registered" horiz-adv-x="1249" unicode="®"/><glyph d="M510 1180h-404q-70 0 -69 67v53q0 70 69 70h404q70 0 70 -70v-53q0 -67 -70 -67z" glyph-name="macron" unicode="¯"/><glyph d="M31 1124.5q0 112.5 78.5 192.5t193.5 80t193.5 -80t78.5 -192.5t-78.5 -192.5t-193.5 -80t-193.5 80t-78.5 192.5zM184 1123q0 -48 35 -82.5t83 -34.5t84 34.5t36 82.5t-36 84t-84 36t-83 -36t-35 -84z" glyph-name="degree" horiz-adv-x="606" unicode="°"/><glyph d="M309 915h115q57 0 57 -57v-158h154q57 0 57 -57v-108q0 -57 -57 -58h-154v-158q0 -57 -57 -57h-115q-57 0 -57 57v158h-154q-57 0 -57 58v108q0 57 57 57h154v158q0 57 57 57zM692 166v-109q0 -57 -57 -57h-537q-57 0 -57 57v109q0 57 57 57h537q57 0 57 -57z" glyph-name="plusminus" horiz-adv-x="733" unicode="±"/><glyph d="M39 1227v71q0 86 197 86q147 0 229 -63.5t82 -177.5q0 -61 -33 -114.5t-64.5 -81t-87.5 -64.5q-90 -65 -102 -89t-12 -44t18 -19h226q45 0 45 -43v-98q0 -43 -45 -43h-439q-43 0 -43 43v80q0 150 64.5 223t152.5 135q102 68 103 115q0 57 -105 57l-135 -18q-51 0 -51 45z " glyph-name="uni00B2" horiz-adv-x="567" unicode="²"/><glyph d="M190 893h-38q-45 0 -46 43v72q0 43 46 43h43q92 0 92 77q0 35 -27.5 53.5t-61.5 18.5t-69 -8t-45 -8q-51 0 -51 45v69q0 86 184 86q133 0 209 -62t76 -168t-80 -171q115 -66 115 -199q0 -106 -77 -181t-216 -75q-90 0 -167 32t-77 79v70q0 47 49 47q16 0 67.5 -20.5 t96.5 -20.5t71.5 25.5t26.5 62.5t-33 63.5t-88 26.5z" glyph-name="uni00B3" horiz-adv-x="557" unicode="³"/><glyph d="M162 1141q-27 0 -37 17.5t-2 41.5l53 174q16 51 76 51h203q31 0 37.5 -18.5t-11.5 -38.5l-168 -197q-25 -31 -80 -30h-71z" glyph-name="acute" unicode="´"/><glyph d="M444 709v462q0 25 -28 25q-106 -10 -164.5 -76.5t-58.5 -179.5t58 -179.5t165 -76.5q28 0 28 25zM606 1163v-1341q0 -68 -69 -68h-25q-68 0 -68 68v659q0 31 -26 31q-174 12 -280.5 120.5t-106.5 314.5t121.5 312.5t302.5 106.5h481q70 0 70 -70v-30q0 -68 -70 -68h-35 q-33 0 -33 -35v-1341q0 -68 -69 -68h-25q-68 0 -67 68v1341q0 35 -33 35h-35q-33 0 -33 -35z" glyph-name="paragraph" horiz-adv-x="1005" unicode="¶"/><glyph d="M352 766v-172q0 -68 -67 -68h-185q-70 0 -69 68v172q0 68 69 68h185q67 0 67 -68z" glyph-name="periodcentered" horiz-adv-x="382" unicode="·"/><glyph d="M336 -276q0 72 -109 71q-23 0 -38 9.5t-5 29.5l97 189h145l-70 -136q76 0 127.5 -43.5t51.5 -115.5q0 -113 -97.5 -176.5t-214.5 -63.5q-154 0 -141 53l14 72q10 27 27 27l76 -9q55 0 96 26t41 67z" glyph-name="cedilla" unicode="¸"/><glyph d="M315 1251v-661q0 -43 -41 -43h-141q-43 0 -43 43v575q0 23 -22 23h-25q-43 0 -43 41v94q0 43 43 43h160q63 0 87.5 -29t24.5 -86z" glyph-name="uni00B9" horiz-adv-x="366" unicode="¹"/><glyph d="M20 936v242q0 106 74 157t173 51t173 -51t74 -157v-242q0 -106 -72.5 -157.5t-173 -51.5t-174.5 51.5t-74 157.5zM223 1178v-242q0 -63 45 -64q43 0 43 64v242q0 61 -44 61t-44 -61z" glyph-name="ordmasculine" horiz-adv-x="534" unicode="º"/><glyph d="M657 0h-198q-20 0 -28.5 14.5t1.5 36.5l176 330l-176 330q-10 23 -2 37t29 14h198q31 0 50 -31l172 -297q31 -53 0 -106l-172 -297q-18 -31 -50 -31zM264 0h-198q-20 0 -28.5 14.5t1.5 36.5l176 330l-176 330q-10 23 -2 37t29 14h198q31 0 49 -31l172 -297q31 -53 0 -106 l-172 -297q-18 -31 -49 -31z" glyph-name="guillemotright" horiz-adv-x="923" unicode="»"/><glyph d="M307 0h-86q-31 0 -45 19.5t0 48.5l535 1230q31 68 90 68h86q35 0 47 -18.5t-2 -49.5l-535 -1230q-31 -68 -90 -68zM1114 90v-47q0 -43 -43 -43h-139q-43 0 -43 43v47q0 23 -23 23h-248q-47 0 -47 41v75q0 29 15 58l239 489q20 43 72 43h174q43 0 43 -43v-459 q0 -23 23 -22h8q43 0 43 -43v-96q0 -43 -43 -43h-8q-23 0 -23 -23zM799 295h67q23 0 23 22v209l-101 -209q-9 -22 11 -22zM326 1251v-661q0 -43 -41 -43h-142q-43 0 -43 43v575q0 23 -22 23h-25q-43 0 -43 41v94q0 43 43 43h160q63 0 88 -29t25 -86z" glyph-name="onequarter" horiz-adv-x="1187" unicode="¼"/><glyph d="M297 0h-86q-31 0 -45 19.5t0 48.5l534 1230q31 68 91 68h86q35 0 47 -18.5t-2 -49.5l-535 -1230q-31 -68 -90 -68zM315 1251v-661q0 -43 -41 -43h-141q-43 0 -43 43v575q0 23 -22 23h-25q-43 0 -43 41v94q0 43 43 43h160q63 0 87.5 -29t24.5 -86zM758 680v72q0 86 196 86 q147 0 229.5 -63.5t82.5 -178.5q0 -61 -33 -114.5t-64.5 -81t-87.5 -64.5q-90 -66 -102 -89t-12 -43t18 -20h225q45 0 45 -43v-98q0 -43 -45 -43h-438q-43 0 -43 43v80q0 150 66.5 225.5t159.5 138.5q93 62 94 109q0 57 -105 57l-135 -18q-51 0 -51 45z" glyph-name="onehalf" horiz-adv-x="1286" unicode="½"/><glyph d="M190 893h-38q-45 0 -46 43v72q0 43 46 43h43q92 0 92 77q0 35 -27.5 53.5t-61.5 18.5t-69 -8t-45 -8q-51 0 -51 45v69q0 86 184 86q133 0 209 -62t76 -168t-80 -171q115 -66 115 -199q0 -106 -77 -181t-216 -75q-90 0 -167 32t-77 79v70q0 47 49 47q16 0 67.5 -20.5 t96.5 -20.5t71.5 25.5t26.5 62.5t-33 63.5t-88 26.5zM457 0h-86q-31 0 -45.5 19.5t0.5 48.5l534 1230q31 68 90 68h86q35 0 47 -18.5t-2 -49.5l-534 -1230q-31 -68 -90 -68zM1264 90v-47q0 -43 -43 -43h-140q-43 0 -43 43v47q0 23 -22 23h-248q-47 0 -47 41v75q0 29 14 58 l240 489q20 43 72 43h174q43 0 43 -43v-459q0 -23 22 -22h8q43 0 43 -43v-96q0 -43 -43 -43h-8q-22 0 -22 -23zM948 295h68q23 0 22 22v209l-100 -209q-13 -22 10 -22z" glyph-name="threequarters" horiz-adv-x="1337" unicode="¾"/><glyph d="M371 817v172q0 68 67 68h185q70 0 69 -68v-172q0 -68 -69 -67h-185q-67 -1 -67 67zM651 582q0 -104 -28.5 -182t-69.5 -120t-82 -75t-69.5 -67t-28.5 -75q0 -102 178 -102q57 0 133 15.5t92 15.5q80 0 80 -76v-115q0 -53 -82 -97t-242 -44q-240 0 -370.5 99.5 t-130.5 252.5q0 96 37.5 168t93 115t149.5 107.5t101 177.5q2 68 67 67h103q69 1 69 -65z" glyph-name="questiondown" horiz-adv-x="886" unicode="¿"/><glyph d="M633 328h-189q-29 0 -34 -31l-48 -229q-12 -68 -90 -68h-241q-31 0 -42.5 20.5t-4.5 47.5l295 1228q16 70 88 70h338q72 0 88 -70l290 -1228q6 -27 -5 -47.5t-42 -20.5h-233q-74 0 -90 68l-45 229q-6 31 -35 31zM502 600h76q32 0 24 33l-61 309l-64 -309q-8 -33 25 -33z M285 1735h202q59 0 76 -52l53 -174q8 -25 -2 -42t-36 -17h-72q-55 0 -80 31l-168 196q-18 20 -11 39t38 19z" glyph-name="Agrave" horiz-adv-x="1067" unicode="À"/><glyph d="M633 328h-189q-29 0 -34 -31l-48 -229q-12 -68 -90 -68h-241q-31 0 -42.5 20.5t-4.5 47.5l295 1228q16 70 88 70h338q72 0 88 -70l290 -1228q6 -27 -5 -47.5t-42 -20.5h-233q-74 0 -90 68l-45 229q-6 31 -35 31zM502 600h76q32 0 24 33l-61 309l-64 -309q-8 -33 25 -33z M561 1450h-72q-27 0 -37 17.5t-1 41.5l53 174q16 51 76 52h202q31 0 38 -19t-11 -39l-168 -196q-25 -31 -80 -31z" glyph-name="Aacute" horiz-adv-x="1067" unicode="Á"/><glyph d="M633 328h-189q-29 0 -34 -31l-48 -229q-12 -68 -90 -68h-241q-31 0 -42.5 20.5t-4.5 47.5l295 1228q16 70 88 70h338q72 0 88 -70l290 -1228q6 -27 -5 -47.5t-42 -20.5h-233q-74 0 -90 68l-45 229q-6 31 -35 31zM502 600h76q32 0 24 33l-61 309l-64 -309q-8 -33 25 -33z M367 1450h-88q-27 0 -39.5 18.5t0.5 40.5l94 174q27 51 84 52h231q59 0 84 -52l94 -174q12 -23 0 -41t-39 -18h-88q-55 0 -79 31l-89 102l-86 -102q-25 -31 -79 -31z" glyph-name="Acircumflex" horiz-adv-x="1067" unicode="Â"/><glyph d="M633 328h-189q-29 0 -34 -31l-48 -229q-12 -68 -90 -68h-241q-31 0 -42.5 20.5t-4.5 47.5l295 1228q16 70 88 70h338q72 0 88 -70l290 -1228q6 -27 -5 -47.5t-42 -20.5h-233q-74 0 -90 68l-45 229q-6 31 -35 31zM502 600h76q32 0 24 33l-61 309l-64 -309q-8 -33 25 -33z M834 1677q0 -90 -46.5 -155.5t-115.5 -65.5t-143 37t-97 37t-37 -15.5t-14 -36t-33 -20.5h-82q-35 0 -35 45q0 96 49.5 157.5t123.5 61.5t142 -38.5t88.5 -38.5t35 15t14.5 40q0 20 31 20h84q35 0 35 -43z" glyph-name="Atilde" horiz-adv-x="1067" unicode="Ã"/><glyph d="M633 328h-189q-29 0 -34 -31l-48 -229q-12 -68 -90 -68h-241q-31 0 -42.5 20.5t-4.5 47.5l295 1228q16 70 88 70h338q72 0 88 -70l290 -1228q6 -27 -5 -47.5t-42 -20.5h-233q-74 0 -90 68l-45 229q-6 31 -35 31zM502 600h76q32 0 24 33l-61 309l-64 -309q-8 -33 25 -33z M494 1649v-133q0 -53 -54 -54h-143q-51 0 -51 54v133q0 51 51 51h143q54 0 54 -51zM821 1649v-133q0 -53 -53 -54h-143q-51 0 -52 54v133q0 51 52 51h143q53 0 53 -51z" glyph-name="Adieresis" horiz-adv-x="1067" unicode="Ä"/><glyph d="M633 328h-189q-29 0 -34 -31l-48 -229q-12 -68 -90 -68h-241q-31 0 -42.5 20.5t-4.5 47.5l295 1228q16 70 88 70h338q72 0 88 -70l290 -1228q6 -27 -5 -47.5t-42 -20.5h-233q-74 0 -90 68l-45 229q-6 31 -35 31zM502 600h76q32 0 24 33l-61 309l-64 -309q-8 -33 25 -33z M756 1642.5q0 -92.5 -65.5 -158t-158 -65.5t-158 65.5t-65.5 158t65.5 158t158 65.5t158 -65.5t65.5 -158zM451 1642.5q0 -32.5 24.5 -57t57 -24.5t57 24.5t24.5 57t-24.5 57t-57 24.5t-57 -24.5t-24.5 -57z" glyph-name="Aring" horiz-adv-x="1067" unicode="Å"/><glyph d="M717 328h-187q-39 0 -55 -31l-110 -229q-35 -68 -111 -68h-231q-33 0 -46.5 21.5t-1.5 46.5l631 1243q18 37 43 46t66 9h819q70 0 70 -70v-163q0 -68 -70 -68h-360q-41 0 -41 -41v-119q0 -41 41 -41h245q68 0 68 -69v-164q0 -68 -68 -68h-245q-41 0 -41 -41v-180 q0 -41 41 -41h389q68 0 67 -70v-163q0 -68 -67 -68h-732q-68 0 -67 68v211q0 49 -47 49zM662 600h77q25 0 25 25v268l-127 -260q-6 -10 1.5 -21.5t23.5 -11.5z" glyph-name="AE" horiz-adv-x="1640" unicode="Æ"/><glyph d="M506 -276q0 72 -109 71q-23 0 -38 9.5t-5 29.5l72 143q-182 25 -288.5 142t-106.5 319v490q0 229 136 349t361 120q166 0 263.5 -37t97.5 -96v-123q0 -76 -80 -76q-16 0 -89.5 15.5t-149.5 15.5t-123.5 -45t-47.5 -158v-420q0 -113 47.5 -158t123.5 -45t149.5 15.5 t89.5 15.5q80 0 80 -76v-123q0 -57 -86 -93t-236 -40l-41 -82q76 0 127.5 -43.5t51.5 -115.5q0 -113 -97.5 -176.5t-214.5 -63.5q-154 0 -141 53l14 72q6 27 27 27l76 -9q55 0 96 26t41 67z" glyph-name="Ccedilla" horiz-adv-x="909" unicode="Ç"/><glyph d="M918 231v-163q0 -68 -68 -68h-731q-68 0 -68 68v1228q0 70 68 70h702q70 0 70 -70v-163q0 -68 -70 -68h-360q-41 0 -41 -41v-119q0 -41 41 -41h246q68 0 67 -69v-164q0 -68 -67 -68h-246q-41 0 -41 -41v-180q0 -41 41 -41h389q68 0 68 -70zM236 1735h202q59 0 76 -52 l53 -174q8 -25 -2 -42t-37 -17h-71q-55 0 -80 31l-168 196q-18 20 -11 39t38 19z" glyph-name="Egrave" horiz-adv-x="927" unicode="È"/><glyph d="M918 231v-163q0 -68 -68 -68h-731q-68 0 -68 68v1228q0 70 68 70h702q70 0 70 -70v-163q0 -68 -70 -68h-360q-41 0 -41 -41v-119q0 -41 41 -41h246q68 0 67 -69v-164q0 -68 -67 -68h-246q-41 0 -41 -41v-180q0 -41 41 -41h389q68 0 68 -70zM471 1450h-72q-27 0 -37 17.5 t-2 41.5l54 174q16 51 75 52h203q31 0 38 -19t-11 -39l-168 -196q-25 -31 -80 -31z" glyph-name="Eacute" horiz-adv-x="927" unicode="É"/><glyph d="M918 231v-163q0 -68 -68 -68h-731q-68 0 -68 68v1228q0 70 68 70h702q70 0 70 -70v-163q0 -68 -70 -68h-360q-41 0 -41 -41v-119q0 -41 41 -41h246q68 0 67 -69v-164q0 -68 -67 -68h-246q-41 0 -41 -41v-180q0 -41 41 -41h389q68 0 68 -70zM297 1450h-88q-27 0 -39 18.5 t0 40.5l94 174q27 51 84 52h232q59 0 84 -52l94 -174q12 -23 -0.5 -41t-38.5 -18h-88q-55 0 -80 31l-88 102l-86 -102q-25 -31 -80 -31z" glyph-name="Ecircumflex" horiz-adv-x="927" unicode="Ê"/><glyph d="M918 231v-163q0 -68 -68 -68h-731q-68 0 -68 68v1228q0 70 68 70h702q70 0 70 -70v-163q0 -68 -70 -68h-360q-41 0 -41 -41v-119q0 -41 41 -41h246q68 0 67 -69v-164q0 -68 -67 -68h-246q-41 0 -41 -41v-180q0 -41 41 -41h389q68 0 68 -70zM424 1649v-133q0 -53 -53 -54 h-144q-51 0 -51 54v133q0 51 51 51h144q53 0 53 -51zM752 1649v-133q0 -53 -54 -54h-143q-51 0 -51 54v133q0 51 51 51h143q54 0 54 -51z" glyph-name="Edieresis" horiz-adv-x="927" unicode="Ë"/><glyph d="M420 1296v-1228q0 -68 -70 -68h-231q-68 0 -68 68v1228q0 70 68 70h231q70 0 70 -70zM8 1735h203q59 0 76 -52l53 -174q8 -25 -2 -42t-37 -17h-72q-54 0 -79 31l-168 196q-18 20 -11.5 39t37.5 19z" glyph-name="Igrave" horiz-adv-x="471" unicode="Ì"/><glyph d="M420 1296v-1228q0 -68 -70 -68h-231q-68 0 -68 68v1228q0 70 68 70h231q70 0 70 -70zM223 1450h-71q-27 0 -37.5 17.5t-1.5 41.5l53 174q16 51 76 52h202q31 0 38 -19t-11 -39l-168 -196q-25 -31 -80 -31z" glyph-name="Iacute" horiz-adv-x="471" unicode="Í"/><glyph d="M420 1296v-1228q0 -68 -70 -68h-231q-68 0 -68 68v1228q0 70 68 70h231q70 0 70 -70zM70 1450h-88q-27 0 -39.5 18.5t0.5 40.5l94 174q25 51 84 52h231q57 0 84 -52l94 -174q12 -23 0 -41t-38 -18h-89q-55 0 -79 31l-88 102l-86 -102q-25 -31 -80 -31z" glyph-name="Icircumflex" horiz-adv-x="471" unicode="Î"/><glyph d="M420 1296v-1228q0 -68 -70 -68h-231q-68 0 -68 68v1228q0 70 68 70h231q70 0 70 -70zM197 1649v-133q0 -53 -54 -54h-143q-51 0 -51 54v133q0 51 51 51h143q54 0 54 -51zM524 1649v-133q0 -53 -53 -54h-143q-51 0 -52 54v133q0 51 52 51h143q53 0 53 -51z" glyph-name="Idieresis" horiz-adv-x="471" unicode="Ï"/><glyph d="M96 541h-26q-70 0 -70 67v160q0 70 70 70h26v458q0 70 68 70h440q215 0 350.5 -126t135.5 -351v-412q0 -225 -135.5 -351t-350.5 -126h-440q-68 0 -68 68v473zM604 1051h-106q-41 0 -41 -41v-172h78q70 0 69 -70v-160q0 -68 -69 -67h-78v-185q0 -41 41 -41h106 q125 0 125 162v412q0 162 -125 162z" glyph-name="Eth" horiz-adv-x="1120" unicode="Ð"/><glyph d="M713 1298q0 68 67 68h224q68 0 67 -68v-1228q0 -70 -67 -70h-207q-51 0 -76 13.5t-43 54.5l-268 596v-596q0 -68 -68 -68h-223q-68 0 -68 68v1228q0 70 68 70h207q51 0 75.5 -13.5t42.5 -54.5l269 -598v598zM862 1677q0 -90 -46 -155.5t-116 -65.5t-144 37t-96 37 t-36 -15.5t-14 -36t-33 -20.5h-82q-35 0 -35 45q0 96 49 157.5t123 61.5t142.5 -38.5t89 -38.5t35 15t14.5 40q0 20 30 20h84q35 0 35 -43z" glyph-name="Ntilde" horiz-adv-x="1122" unicode="Ñ"/><glyph d="M399 920v-474q0 -162 125 -161.5t125 161.5v474q0 162 -125 162t-125 -162zM1018 920v-474q0 -227 -134 -352t-359.5 -125t-359.5 125t-134 352v474q0 227 134 352t359.5 125t359.5 -125t134 -352zM295 1735h203q59 0 75 -52l54 -174q8 -25 -2.5 -42t-36.5 -17h-72 q-55 0 -80 31l-168 196q-18 20 -11 39t38 19z" glyph-name="Ograve" horiz-adv-x="1048" unicode="Ò"/><glyph d="M399 920v-474q0 -162 125 -161.5t125 161.5v474q0 162 -125 162t-125 -162zM1018 920v-474q0 -227 -134 -352t-359.5 -125t-359.5 125t-134 352v474q0 227 134 352t359.5 125t359.5 -125t134 -352zM510 1450h-72q-27 0 -37 17.5t-2 41.5l54 174q16 51 75 52h203 q31 0 38 -19t-11 -39l-168 -196q-25 -31 -80 -31z" glyph-name="Oacute" horiz-adv-x="1048" unicode="Ó"/><glyph d="M399 920v-474q0 -162 125 -161.5t125 161.5v474q0 162 -125 162t-125 -162zM1018 920v-474q0 -227 -134 -352t-359.5 -125t-359.5 125t-134 352v474q0 227 134 352t359.5 125t359.5 -125t134 -352zM356 1450h-88q-27 0 -39 18.5t0 40.5l95 174q25 51 84 52h231 q57 0 84 -52l94 -174q12 -23 0 -41t-39 -18h-88q-55 0 -80 31l-88 102l-86 -102q-25 -31 -80 -31z" glyph-name="Ocircumflex" horiz-adv-x="1048" unicode="Ô"/><glyph d="M399 920v-474q0 -162 125 -161.5t125 161.5v474q0 162 -125 162t-125 -162zM1018 920v-474q0 -227 -134 -352t-359.5 -125t-359.5 125t-134 352v474q0 227 134 352t359.5 125t359.5 -125t134 -352zM825 1677q0 -90 -45.5 -155.5t-115.5 -65.5t-144 37t-96 37t-36.5 -15.5 t-14.5 -36t-33 -20.5h-82q-35 0 -35 45q0 96 49.5 157.5t123.5 61.5t142 -38.5t88.5 -38.5t35 15t14.5 40q0 20 31 20h84q34 0 34 -43z" glyph-name="Otilde" horiz-adv-x="1048" unicode="Õ"/><glyph d="M399 920v-474q0 -162 125 -161.5t125 161.5v474q0 162 -125 162t-125 -162zM1018 920v-474q0 -227 -134 -352t-359.5 -125t-359.5 125t-134 352v474q0 227 134 352t359.5 125t359.5 -125t134 -352zM483 1649v-133q0 -53 -53 -54h-143q-51 0 -51 54v133q0 51 51 51h143 q53 0 53 -51zM811 1649v-133q0 -53 -53 -54h-144q-51 0 -51 54v133q0 51 51 51h144q53 0 53 -51z" glyph-name="Odieresis" horiz-adv-x="1048" unicode="Ö"/><glyph d="M61 768l76 78q39 43 82 0l139 -141l142 141q43 41 82 0l75 -78q39 -41 0 -80l-141 -141l141 -139q39 -39 2 -80l-77 -80q-39 -41 -82 0l-142 141l-137 -139q-41 -45 -82 0l-76 78q-37 39 0 80l138 139l-140 141q-41 41 0 80z" glyph-name="multiply" horiz-adv-x="720" unicode="×"/><glyph d="M399 920v-474q0 -162 125 -161.5t125 161.5v474q0 162 -125 162t-125 -162zM1018 920v-474q0 -227 -134 -352t-360 -125q-135 0 -241 47l-25 -43q-29 -55 -88 -26l-96 53q-61 35 -33 88l53 94q-63 111 -63 264v474q0 227 134 352t359 125q131 0 238 -47l22 41 q35 61 88 28l103 -57q58 -31 29 -84l-54 -92q68 -113 68 -266z" glyph-name="Oslash" horiz-adv-x="1048" unicode="Ø"/><glyph d="M545 -31q-217 0 -355.5 126t-138.5 351v850q0 70 68 70h231q70 0 70 -70v-850q0 -162 125 -161.5t125 161.5v850q0 70 69 70h232q68 0 67 -70v-850q0 -225 -138 -351t-355 -126zM295 1735h203q59 0 75 -52l54 -174q8 -25 -2.5 -42t-36.5 -17h-72q-55 0 -80 31l-168 196 q-18 20 -11 39t38 19z" glyph-name="Ugrave" horiz-adv-x="1089" unicode="Ù"/><glyph d="M545 -31q-217 0 -355.5 126t-138.5 351v850q0 70 68 70h231q70 0 70 -70v-850q0 -162 125 -161.5t125 161.5v850q0 70 69 70h232q68 0 67 -70v-850q0 -225 -138 -351t-355 -126zM530 1450h-71q-27 0 -37 17.5t-2 41.5l53 174q16 51 76 52h203q31 0 37.5 -19t-11.5 -39 l-168 -196q-25 -31 -80 -31z" glyph-name="Uacute" horiz-adv-x="1089" unicode="Ú"/><glyph d="M545 -31q-217 0 -355.5 126t-138.5 351v850q0 70 68 70h231q70 0 70 -70v-850q0 -162 125 -161.5t125 161.5v850q0 70 69 70h232q68 0 67 -70v-850q0 -225 -138 -351t-355 -126zM377 1450h-88q-27 0 -39 18.5t0 40.5l94 174q25 51 84 52h231q57 0 84 -52l95 -174 q12 -23 -0.5 -41t-38.5 -18h-88q-55 0 -80 31l-88 102l-86 -102q-25 -31 -80 -31z" glyph-name="Ucircumflex" horiz-adv-x="1089" unicode="Û"/><glyph d="M545 -31q-217 0 -355.5 126t-138.5 351v850q0 70 68 70h231q70 0 70 -70v-850q0 -162 125 -161.5t125 161.5v850q0 70 69 70h232q68 0 67 -70v-850q0 -225 -138 -351t-355 -126zM504 1649v-133q0 -53 -53 -54h-144q-51 0 -51 54v133q0 51 51 51h144q53 0 53 -51z M831 1649v-133q0 -53 -53 -54h-143q-51 0 -51 54v133q0 51 51 51h143q53 0 53 -51z" glyph-name="Udieresis" horiz-adv-x="1089" unicode="Ü"/><glyph d="M692 438v-370q0 -68 -67 -68h-228q-68 0 -67 68v372q0 66 -33 135l-305 703q-16 39 -6 63.5t47 24.5h231q39 0 55.5 -11.5t28.5 -43.5l172 -426l182 426q12 33 29 44t55 11h222q37 0 47 -24.5t-6 -63.5l-316 -703q-41 -86 -41 -137zM526 1450h-71q-27 0 -37 17.5t-2 41.5 l53 174q16 51 76 52h203q31 0 37.5 -19t-11.5 -39l-168 -196q-25 -31 -80 -31z" glyph-name="Yacute" horiz-adv-x="1040" unicode="Ý"/><glyph d="M461 1135h65q207 0 345.5 -116t138.5 -322t-127 -318.5t-357 -112.5h-65q-41 0 -41 -41v-157q0 -68 -70 -68h-231q-68 0 -68 68v1228q0 70 68 70h231q70 0 70 -70v-120q0 -41 41 -41zM461 582h65q53 0 88 30.5t35 88t-34.5 88t-88.5 30.5h-65q-41 0 -41 -41v-155 q0 -41 41 -41z" glyph-name="Thorn" horiz-adv-x="1030" unicode="Þ"/><glyph d="M588 324q0 32 -39 71t-91 91.5t-75 105.5v-524q0 -68 -70 -68h-211q-68 0 -67 68v839q0 211 114.5 335t294.5 124t290 -100.5t110 -259.5q0 -117 -72 -205.5t-72 -108.5t36 -59t79 -84t79 -117t36 -141q0 -143 -91 -227t-218 -84q-82 0 -145.5 27.5t-63.5 76.5v125 q0 23 16 38t35 15l55 -8q31 0 50.5 19t19.5 51zM530 998q0 83 -67 83q-80 0 -80 -133v-174q18 41 82.5 112t64.5 112z" glyph-name="germandbls" horiz-adv-x="940" unicode="ß"/><glyph d="M20 342q0 385 500 416q-12 74 -139 73q-59 0 -129 -20t-86 -20t-33.5 14t-17.5 41v104q0 127 303 127q148 0 253 -44t151 -115.5t46 -176.5v-671q0 -70 -67 -70h-170q-61 0 -70 53q-82 -74 -201 -73q-164 0 -252 101t-88 261zM369 360q0 -98 75.5 -98t75.5 98v175 q-74 -20 -112.5 -59.5t-38.5 -115.5zM264 1425h203q59 0 76 -51l53 -174q8 -25 -2 -42t-37 -17h-72q-54 -1 -79 30l-168 197q-18 20 -11.5 38.5t37.5 18.5z" glyph-name="agrave" horiz-adv-x="905" unicode="à"/><glyph d="M20 342q0 385 500 416q-12 74 -139 73q-59 0 -129 -20t-86 -20t-33.5 14t-17.5 41v104q0 127 303 127q148 0 253 -44t151 -115.5t46 -176.5v-671q0 -70 -67 -70h-170q-61 0 -70 53q-82 -74 -201 -73q-164 0 -252 101t-88 261zM369 360q0 -98 75.5 -98t75.5 98v175 q-74 -20 -112.5 -59.5t-38.5 -115.5zM408 1141q-27 0 -37.5 17.5t-1.5 41.5l53 174q16 51 76 51h202q31 0 38 -18.5t-11 -38.5l-168 -197q-25 -31 -80 -30h-71z" glyph-name="aacute" horiz-adv-x="905" unicode="á"/><glyph d="M20 342q0 385 500 416q-12 74 -139 73q-59 0 -129 -20t-86 -20t-33.5 14t-17.5 41v104q0 127 303 127q148 0 253 -44t151 -115.5t46 -176.5v-671q0 -70 -67 -70h-170q-61 0 -70 53q-82 -74 -201 -73q-164 0 -252 101t-88 261zM369 360q0 -98 75.5 -98t75.5 98v175 q-74 -20 -112.5 -59.5t-38.5 -115.5zM197 1141q-27 0 -39.5 19.5t0.5 39.5l94 174q27 51 84 51h231q59 0 84 -51l94 -174q12 -20 0 -39.5t-38 -19.5h-89q-55 0 -79 30l-88 103l-86 -103q-25 -31 -80 -30h-88z" glyph-name="acircumflex" horiz-adv-x="905" unicode="â"/><glyph d="M20 342q0 385 500 416q-12 74 -139 73q-59 0 -129 -20t-86 -20t-33.5 14t-17.5 41v104q0 127 303 127q148 0 253 -44t151 -115.5t46 -176.5v-671q0 -70 -67 -70h-170q-61 0 -70 53q-82 -74 -201 -73q-164 0 -252 101t-88 261zM369 360q0 -98 75.5 -98t75.5 98v175 q-74 -20 -112.5 -59.5t-38.5 -115.5zM754 1368q0 -90 -46 -155.5t-116 -65.5t-143.5 37t-96.5 37t-37 -15.5t-14 -36t-33 -20.5h-82q-35 0 -34 45q0 96 49 157.5t123 61.5t142.5 -39t88.5 -39t34.5 15.5t14.5 40.5q0 20 31 20h84q35 0 35 -43z" glyph-name="atilde" horiz-adv-x="905" unicode="ã"/><glyph d="M20 342q0 385 500 416q-12 74 -139 73q-59 0 -129 -20t-86 -20t-33.5 14t-17.5 41v104q0 127 303 127q148 0 253 -44t151 -115.5t46 -176.5v-671q0 -70 -67 -70h-170q-61 0 -70 53q-82 -74 -201 -73q-164 0 -252 101t-88 261zM369 360q0 -98 75.5 -98t75.5 98v175 q-74 -20 -112.5 -59.5t-38.5 -115.5zM412 1339v-133q0 -53 -54 -53h-143q-51 0 -51 53v133q0 51 51 52h143q54 -1 54 -52zM739 1339v-133q0 -53 -53 -53h-143q-51 0 -51 53v133q0 51 51 52h143q53 -1 53 -52z" glyph-name="adieresis" horiz-adv-x="905" unicode="ä"/><glyph d="M20 342q0 385 500 416q-12 74 -139 73q-59 0 -129 -20t-86 -20t-33.5 14t-17.5 41v104q0 127 303 127q148 0 253 -44t151 -115.5t46 -176.5v-671q0 -70 -67 -70h-170q-61 0 -70 53q-82 -74 -201 -73q-164 0 -252 101t-88 261zM369 360q0 -98 75.5 -98t75.5 98v175 q-74 -20 -112.5 -59.5t-38.5 -115.5zM676 1333q0 -92 -65.5 -157.5t-158 -65.5t-158 65.5t-65.5 157.5t65.5 157.5t158 65.5t158 -65.5t65.5 -157.5zM371 1333q0 -35 23.5 -58.5t58 -23.5t58.5 23.5t24 58.5t-24 58.5t-58.5 23.5t-58 -23.5t-23.5 -58.5z" glyph-name="aring" horiz-adv-x="905" unicode="å"/><glyph d="M1247 430h-399v-51q0 -123 172 -123q47 0 110.5 17.5t92.5 17.5t45 -20.5t16 -47.5v-86q0 -68 -80 -112.5t-221 -44.5q-246 0 -367 135q-4 -6 -17.5 -27t-78 -64.5t-160.5 -43.5q-164 0 -252 101t-88 261q0 385 500 416q-12 74 -139 73q-59 0 -129 -20t-86 -20t-33.5 14 t-17.5 41v104q0 127 303 127q170 0 276 -53q100 53 224 53q170 0 283.5 -94t113.5 -270v-215q0 -68 -68 -68zM369 360q0 -98 75.5 -98t75.5 98v175q-74 -20 -112.5 -59.5t-38.5 -115.5zM848 702v-24h158v24q0 117 -79 117t-79 -117z" glyph-name="ae" horiz-adv-x="1345" unicode="æ"/><glyph d="M705 182v-86q0 -111 -248 -116l-47 -93q76 0 127 -43.5t51 -115.5q0 -113 -97.5 -176.5t-214.5 -63.5q-154 0 -141 53l15 72q6 27 26 27l76 -9q55 0 96 26t41 67q0 72 -108 71q-23 0 -38.5 9.5t-4.5 29.5l77 156q-129 23 -206.5 105.5t-77.5 228.5v409q0 174 111.5 259 t285.5 85q276 0 277 -116v-87q0 -39 -20.5 -63.5t-57.5 -24.5l-131 13q-117 0 -117 -121v-299q0 -121 117 -121l131 12q37 0 57.5 -24.5t20.5 -63.5z" glyph-name="ccedilla" horiz-adv-x="714" unicode="ç"/><glyph d="M758 430h-400v-51q0 -123 172 -123q47 0 111.5 17.5t92.5 17.5t44.5 -20.5t16.5 -47.5v-86q0 -68 -80 -112.5t-221 -44.5q-215 0 -339 107.5t-124 318.5v307q0 176 113.5 270t283.5 94t283.5 -94t113.5 -270v-215q1 -68 -67 -68zM358 702v-24h158v24q0 117 -79 117 t-79 -117zM199 1425h202q59 0 76 -51l53 -174q8 -25 -2 -42t-36 -17h-72q-55 -1 -80 30l-168 197q-18 20 -11 38.5t38 18.5z" glyph-name="egrave" horiz-adv-x="856" unicode="è"/><glyph d="M758 430h-400v-51q0 -123 172 -123q47 0 111.5 17.5t92.5 17.5t44.5 -20.5t16.5 -47.5v-86q0 -68 -80 -112.5t-221 -44.5q-215 0 -339 107.5t-124 318.5v307q0 176 113.5 270t283.5 94t283.5 -94t113.5 -270v-215q1 -68 -67 -68zM358 702v-24h158v24q0 117 -79 117 t-79 -117zM362 1141q-27 0 -37 17.5t-1 41.5l53 174q16 51 76 51h202q31 0 38 -18.5t-11 -38.5l-168 -197q-25 -31 -80 -30h-72z" glyph-name="eacute" horiz-adv-x="856" unicode="é"/><glyph d="M758 430h-400v-51q0 -123 172 -123q47 0 111.5 17.5t92.5 17.5t44.5 -20.5t16.5 -47.5v-86q0 -68 -80 -112.5t-221 -44.5q-215 0 -339 107.5t-124 318.5v307q0 176 113.5 270t283.5 94t283.5 -94t113.5 -270v-215q1 -68 -67 -68zM358 702v-24h158v24q0 117 -79 117 t-79 -117zM172 1141q-27 0 -39 19.5t0 39.5l94 174q27 51 84 51h232q59 0 84 -51l94 -174q12 -20 0 -39.5t-39 -19.5h-88q-55 0 -80 30l-88 103l-86 -103q-25 -31 -80 -30h-88z" glyph-name="ecircumflex" horiz-adv-x="856" unicode="ê"/><glyph d="M758 430h-400v-51q0 -123 172 -123q47 0 111.5 17.5t92.5 17.5t44.5 -20.5t16.5 -47.5v-86q0 -68 -80 -112.5t-221 -44.5q-215 0 -339 107.5t-124 318.5v307q0 176 113.5 270t283.5 94t283.5 -94t113.5 -270v-215q1 -68 -67 -68zM358 702v-24h158v24q0 117 -79 117 t-79 -117zM387 1339v-133q0 -53 -53 -53h-144q-51 0 -51 53v133q0 51 51 52h144q53 -1 53 -52zM715 1339v-133q0 -53 -53 -53h-144q-51 0 -51 53v133q0 51 51 52h144q53 -1 53 -52z" glyph-name="edieresis" horiz-adv-x="856" unicode="ë"/><glyph d="M389 987v-919q0 -68 -70 -68h-210q-68 0 -68 68v919q0 70 68 70h210q70 0 70 -70zM8 1425h203q59 0 76 -51l53 -174q8 -25 -2 -42t-37 -17h-72q-54 -1 -79 30l-168 197q-18 20 -11.5 38.5t37.5 18.5z" glyph-name="igrave" horiz-adv-x="430" unicode="ì"/><glyph d="M389 987v-919q0 -68 -70 -68h-210q-68 0 -68 68v919q0 70 68 70h210q70 0 70 -70zM131 1141q-27 0 -37 17.5t-2 41.5l53 174q16 51 76 51h203q31 0 38 -18.5t-11 -38.5l-168 -197q-25 -31 -80 -30h-72z" glyph-name="iacute" horiz-adv-x="430" unicode="í"/><glyph d="M389 987v-919q0 -68 -70 -68h-210q-68 0 -68 68v919q0 70 68 70h210q70 0 70 -70zM-39 1141q-27 0 -39 19.5t0 39.5l94 174q25 51 84 51h232q57 0 84 -51l94 -174q12 -20 0 -39.5t-39 -19.5h-88q-55 0 -80 30l-88 103l-86 -103q-25 -31 -80 -30h-88z" glyph-name="icircumflex" horiz-adv-x="430" unicode="î"/><glyph d="M389 987v-919q0 -68 -70 -68h-210q-68 0 -68 68v919q0 70 68 70h210q70 0 70 -70zM176 1339v-133q0 -53 -53 -53h-143q-51 0 -52 53v133q0 51 52 52h143q53 -1 53 -52zM504 1339v-133q0 -53 -53 -53h-144q-51 0 -51 53v133q0 51 51 52h144q53 -1 53 -52z" glyph-name="idieresis" horiz-adv-x="430" unicode="ï"/><glyph d="M279 1321q0 45 59 45h125q35 0 86 -39l80 37q63 29 94 -33l35 -69q29 -61 -35 -91l-35 -16q166 -281 166 -563v-264q0 -178 -123 -263t-289 -85t-288.5 85t-122.5 263v278q0 178 122.5 263t288.5 85h19q-15 45 -31 82l-53 -22q-66 -29 -92 30l-35 68q-31 66 35 92l43 21 l-35 53q-14 20 -14 43zM369 606v-278q0 -104 73.5 -104.5t73.5 104.5v278q0 104 -73.5 104t-73.5 -104z" glyph-name="eth" horiz-adv-x="884" unicode="ð"/><glyph d="M541 68v632q0 98 -76 99q-35 0 -55.5 -23.5t-20.5 -62.5v-645q0 -68 -70 -68h-210q-68 0 -68 68v919q0 70 68 70h170q70 0 69 -74q94 94 238 94t223.5 -102.5t79.5 -278.5v-628q0 -68 -70 -68h-211q-67 0 -67 68zM762 1368q0 -90 -46 -155.5t-116 -65.5t-144 37t-96 37 t-36.5 -15.5t-14.5 -36t-33 -20.5h-81q-35 0 -35 45q0 96 49 157.5t123 61.5t142.5 -39t89 -39t34.5 15.5t14 40.5q0 20 31 20h84q35 0 35 -43z" glyph-name="ntilde" horiz-adv-x="923" unicode="ñ"/><glyph d="M31 328v401q0 178 122.5 263t288.5 85t289 -85t123 -263v-401q0 -178 -123 -263t-289 -85t-288.5 85t-122.5 263zM369 729v-401q0 -104 73.5 -104.5t73.5 104.5v401q0 104 -73.5 104t-73.5 -104zM213 1425h203q59 0 76 -51l53 -174q8 -25 -2.5 -42t-36.5 -17h-72 q-55 -1 -80 30l-168 197q-18 20 -11 38.5t38 18.5z" glyph-name="ograve" horiz-adv-x="884" unicode="ò"/><glyph d="M31 328v401q0 178 122.5 263t288.5 85t289 -85t123 -263v-401q0 -178 -123 -263t-289 -85t-288.5 85t-122.5 263zM369 729v-401q0 -104 73.5 -104.5t73.5 104.5v401q0 104 -73.5 104t-73.5 -104zM356 1141q-27 0 -37 17.5t-2 41.5l54 174q16 51 75 51h203q31 0 38 -18.5 t-11 -38.5l-168 -197q-25 -31 -80 -30h-72z" glyph-name="oacute" horiz-adv-x="884" unicode="ó"/><glyph d="M31 328v401q0 178 122.5 263t288.5 85t289 -85t123 -263v-401q0 -178 -123 -263t-289 -85t-288.5 85t-122.5 263zM369 729v-401q0 -104 73.5 -104.5t73.5 104.5v401q0 104 -73.5 104t-73.5 -104zM186 1141q-27 0 -39 19.5t0 39.5l95 174q25 51 84 51h231q57 0 84 -51 l94 -174q12 -20 0 -39.5t-39 -19.5h-88q-55 0 -80 30l-88 103l-86 -103q-25 -31 -80 -30h-88z" glyph-name="ocircumflex" horiz-adv-x="884" unicode="ô"/><glyph d="M31 328v401q0 178 122.5 263t288.5 85t289 -85t123 -263v-401q0 -178 -123 -263t-289 -85t-288.5 85t-122.5 263zM369 729v-401q0 -104 73.5 -104.5t73.5 104.5v401q0 104 -73.5 104t-73.5 -104zM743 1368q0 -90 -45.5 -155.5t-115.5 -65.5t-143.5 37t-96.5 37t-37 -15.5 t-14 -36t-33 -20.5h-82q-35 0 -35 45q0 96 49.5 157.5t123.5 61.5t142 -39t88.5 -39t35 15.5t14.5 40.5q0 20 31 20h84q34 0 34 -43z" glyph-name="otilde" horiz-adv-x="884" unicode="õ"/><glyph d="M31 328v401q0 178 122.5 263t288.5 85t289 -85t123 -263v-401q0 -178 -123 -263t-289 -85t-288.5 85t-122.5 263zM369 729v-401q0 -104 73.5 -104.5t73.5 104.5v401q0 104 -73.5 104t-73.5 -104zM401 1339v-133q0 -53 -53 -53h-143q-51 0 -51 53v133q0 51 51 52h143 q53 -1 53 -52zM729 1339v-133q0 -53 -53 -53h-144q-51 0 -51 53v133q0 51 51 52h144q53 -1 53 -52z" glyph-name="odieresis" horiz-adv-x="884" unicode="ö"/><glyph d="M692 602v-108q0 -57 -57 -58h-537q-57 0 -57 58v108q0 57 57 57h537q57 0 57 -57zM317 901h99q57 0 57 -57v-90q0 -57 -57 -58h-99q-57 0 -57 58v90q0 57 57 57zM317 399h99q57 0 57 -57v-90q0 -57 -57 -57h-99q-57 0 -57 57v90q0 57 57 57z" glyph-name="divide" horiz-adv-x="733" unicode="÷"/><glyph d="M369 729v-401q0 -104 73.5 -104.5t73.5 104.5v401q0 104 -73.5 104t-73.5 -104zM31 328v401q0 178 122.5 263t288.5 85q115 0 207 -39l13 17q41 61 96 22l96 -67q51 -35 14 -88l-41 -58q27 -63 27 -135v-401q0 -178 -123 -263t-289 -85q-115 0 -211 38l-12 -16 q-39 -59 -94 -20l-90 63q-57 37 -21 92l39 58q-22 57 -22 133z" glyph-name="oslash" horiz-adv-x="884" unicode="ø"/><glyph d="M383 989v-633q0 -98 76 -98q70 0 76 84v647q0 68 69 68h211q68 0 68 -68v-919q0 -70 -68 -70h-170q-70 0 -70 70q-111 -90 -221 -90q-160 0 -239.5 102t-79.5 278v629q0 68 69 68h211q68 0 68 -68zM233 1425h203q59 0 76 -51l53 -174q8 -25 -2 -42t-37 -17h-71 q-55 -1 -80 30l-168 197q-18 20 -11 38.5t37 18.5z" glyph-name="ugrave" horiz-adv-x="923" unicode="ù"/><glyph d="M383 989v-633q0 -98 76 -98q70 0 76 84v647q0 68 69 68h211q68 0 68 -68v-919q0 -70 -68 -70h-170q-70 0 -70 70q-111 -90 -221 -90q-160 0 -239.5 102t-79.5 278v629q0 68 69 68h211q68 0 68 -68zM377 1141q-27 0 -37 17.5t-2 41.5l53 174q16 51 76 51h203 q31 0 37.5 -18.5t-11.5 -38.5l-168 -197q-25 -31 -79 -30h-72z" glyph-name="uacute" horiz-adv-x="923" unicode="ú"/><glyph d="M383 989v-633q0 -98 76 -98q70 0 76 84v647q0 68 69 68h211q68 0 68 -68v-919q0 -70 -68 -70h-170q-70 0 -70 70q-111 -90 -221 -90q-160 0 -239.5 102t-79.5 278v629q0 68 69 68h211q68 0 68 -68zM207 1141q-27 0 -39 19.5t0 39.5l94 174q25 51 84 51h232q57 0 84 -51 l94 -174q12 -20 -0.5 -39.5t-38.5 -19.5h-88q-55 0 -80 30l-88 103l-86 -103q-25 -31 -80 -30h-88z" glyph-name="ucircumflex" horiz-adv-x="923" unicode="û"/><glyph d="M383 989v-633q0 -98 76 -98q70 0 76 84v647q0 68 69 68h211q68 0 68 -68v-919q0 -70 -68 -70h-170q-70 0 -70 70q-111 -90 -221 -90q-160 0 -239.5 102t-79.5 278v629q0 68 69 68h211q68 0 68 -68zM422 1339v-133q0 -53 -53 -53h-144q-51 0 -51 53v133q0 51 51 52h144 q53 -1 53 -52zM750 1339v-133q0 -53 -54 -53h-143q-51 0 -51 53v133q0 51 51 52h143q54 -1 54 -52z" glyph-name="udieresis" horiz-adv-x="923" unicode="ü"/><glyph d="M690 1057h174q37 0 54.5 -23.5t3.5 -66.5l-383 -1145q-25 -68 -88 -68h-160q-35 0 -56.5 19.5t-11.5 52.5l66 203l-293 938q-12 43 4 66.5t53 23.5h195q74 0 90 -70l115 -452l147 452q22 70 90 70zM395 1141q-27 0 -37 17.5t-2 41.5l54 174q16 51 75 51h203 q31 0 38 -18.5t-11 -38.5l-168 -197q-25 -31 -80 -30h-72z" glyph-name="yacute" horiz-adv-x="919" unicode="ý"/><glyph d="M889 696v-336q0 -176 -80 -278t-240 -102q-100 0 -180 59v-215q0 -70 -70 -70h-210q-68 0 -68 70v1472q0 70 68 70h210q70 0 70 -70v-280q84 61 180 61q160 0 240 -102.5t80 -278.5zM465 262q76 0 76 98v336q0 98 -76 98.5t-76 -98.5v-336q0 -98 76 -98z" glyph-name="thorn" horiz-adv-x="919" unicode="þ"/><glyph d="M690 1057h174q37 0 54.5 -23.5t3.5 -66.5l-383 -1145q-25 -68 -88 -68h-160q-35 0 -56.5 19.5t-11.5 52.5l66 203l-293 938q-12 43 4 66.5t53 23.5h195q74 0 90 -70l115 -452l147 452q22 70 90 70zM420 1339v-133q0 -53 -53 -53h-144q-51 0 -51 53v133q0 51 51 52h144 q53 -1 53 -52zM748 1339v-133q0 -53 -54 -53h-143q-51 0 -51 53v133q0 51 51 52h143q54 -1 54 -52z" glyph-name="ydieresis" horiz-adv-x="919" unicode="ÿ"/><glyph d="M633 328h-189q-29 0 -34 -31l-48 -229q-12 -68 -90 -68h-241q-31 0 -42.5 20.5t-4.5 47.5l295 1228q16 70 88 70h338q72 0 88 -70l290 -1228q6 -27 -5 -47.5t-42 -20.5h-20q-51 0 -77 -35t-26 -74q0 -88 109 -96q39 -2 43 -41l8 -92q5 -39 -97 -39t-180.5 52.5 t-78.5 162.5t104 162h-18q-78 0 -90 68l-45 229q-6 31 -35 31zM502 600h76q32 0 24 33l-61 309l-64 -309q-8 -33 25 -33z" glyph-name="Aogonek" horiz-adv-x="1067" unicode="Ą"/><glyph d="M520 788q0 43 -127 43q-70 0 -140.5 -20t-86.5 -20t-33.5 14t-17.5 41v104q0 127 303 127q148 0 253 -44t151 -115.5t46 -176.5v-671q0 -70 -67 -70q-51 0 -77 -35t-26 -74q0 -88 109 -96q39 -2 43 -41l8 -92q4 -39 -98 -39t-180 52.5t-78 162.5t106 162q-41 10 -47 53 q-82 -74 -201 -73q-164 0 -252 101t-88 275t118 272.5t304 121.5q78 10 78 38zM369 360q0 -98 75.5 -98t75.5 98v175q-74 -20 -112.5 -59.5t-38.5 -115.5z" glyph-name="aogonek" horiz-adv-x="905" unicode="ą"/><glyph d="M706 -377q-102 0 -181 52.5t-79 162.5t105 162h-432q-68 0 -68 68v1228q0 70 68 70h702q70 0 70 -70v-163q0 -68 -70 -68h-360q-41 0 -41 -41v-119q0 -41 41 -41h246q68 0 67 -69v-164q0 -68 -67 -68h-246q-41 0 -41 -41v-180q0 -41 41 -41h389q68 0 68 -70v-163 q0 -68 -68 -68h-105q-53 -4 -77.5 -38t-24.5 -71q0 -88 109 -96q39 -2 43 -41l8 -92q5 -39 -97 -39z" glyph-name="Eogonek" horiz-adv-x="927" unicode="Ę"/><glyph d="M611 -377q-102 0 -180.5 52.5t-78.5 151.5t76 155q-186 16 -291.5 122.5t-105.5 301.5v307q0 176 113.5 270t283.5 94t283.5 -94t113.5 -270v-215q0 -68 -67 -68h-400v-51q0 -123 172 -123q47 0 111.5 17.5t92.5 17.5t44.5 -20.5t16.5 -47.5v-86q0 -53 -48.5 -93 t-138.5 -54q-59 -27 -59 -99q0 -88 108 -96q39 -2 43 -41l9 -92q4 -39 -98 -39zM358 702v-24h158v24q0 117 -79 117t-79 -117z" glyph-name="eogonek" horiz-adv-x="856" unicode="ę"/><glyph d="M389 987v-919q0 -68 -70 -68h-210q-68 0 -68 68v919q0 70 68 70h210q70 0 70 -70z" glyph-name="dotlessi" horiz-adv-x="430" unicode="ı"/><glyph d="M788 0h-669q-68 0 -68 68v362q-63 -25 -88 39l-59 147q-25 66 39 91l108 43v546q0 70 68 70h231q70 0 70 -70v-397l135 55q66 25 90 -39l60 -149q25 -61 -39 -88l-246 -98v-238q0 -41 41 -41h327q70 0 70 -68v-163q0 -70 -70 -70z" glyph-name="Lslash" horiz-adv-x="858" unicode="Ł"/><glyph d="M41 1296q0 70 68 70h210q70 0 70 -70v-376l23 10q63 27 92 -39l43 -113q25 -61 -39 -88l-119 -47v-575q0 -68 -70 -68h-210q-68 0 -68 68v438l-25 -8q-66 -27 -90 37l-43 110q-29 66 39 90l119 47v514z" glyph-name="lslash" horiz-adv-x="430" unicode="ł"/><glyph d="M410 68q0 -68 -68 -68h-223q-68 0 -68 68v1228q0 70 68 70h207q51 0 75.5 -13.5t42.5 -54.5l269 -598v598q0 68 67 68h224q67 0 67 -68v-1243q0 -147 -85 -234t-228 -87q-102 0 -174 28.5t-72 90.5v124q0 61 57 62l64 -4q35 0 51 18l-274 611v-596z" glyph-name="Eng" horiz-adv-x="1122" unicode="Ŋ"/><glyph d="M889 696v-661q0 -141 -75 -221t-218 -80q-70 0 -127 22.5t-57 75.5v131q0 57 59 57h12q57 0 58 64v616q0 98 -76 99q-35 0 -55.5 -23.5t-20.5 -62.5v-645q0 -68 -70 -68h-210q-68 0 -68 68v919q0 70 68 70h170q70 0 69 -70q111 90 221 90q160 0 240 -102.5t80 -278.5z " glyph-name="eng" horiz-adv-x="923" unicode="ŋ"/><glyph d="M1516 231v-163q0 -68 -68 -68h-723q-90 -31 -201 -31q-225 0 -359 125t-134 352v474q0 227 134 352t359 125q111 0 199 -31h696q70 0 70 -70v-163q0 -68 -70 -68h-360q-41 0 -41 -41v-119q0 -41 41 -41h246q68 0 67 -69v-164q0 -68 -67 -68h-246q-41 0 -41 -41v-180 q0 -41 41 -41h389q68 0 68 -70zM399 920v-474q0 -162 125 -161.5t125 161.5v474q0 162 -125 162t-125 -162z" glyph-name="OE" horiz-adv-x="1525" unicode="Œ"/><glyph d="M31 328v401q0 178 122.5 263t274.5 85t256 -55q98 55 248 55t264.5 -94t114.5 -270v-215q0 -68 -68 -68h-399v-51q0 -123 172 -123q47 0 110.5 17.5t91.5 17.5t45 -20.5t17 -47.5v-86q0 -68 -80 -112.5t-234 -44.5t-268 63q-114 -63 -268 -63t-276.5 85t-122.5 263z M369 729v-401q0 -104 73.5 -104.5t73.5 104.5v401q0 104 -73.5 104t-73.5 -104zM1001 678v24q-1 117 -79 117t-78 -117v-24h157z" glyph-name="oe" horiz-adv-x="1341" unicode="œ"/><glyph d="M899 412q0 -205 -142.5 -323t-345.5 -118t-307 69t-104 138v103q0 74 66 73q27 0 124 -41t180 -41t127 36t44 96t-53.5 101.5t-129 77t-152.5 83t-130 133.5t-53 205q0 186 129 288.5t323 102.5t287.5 -63.5t93.5 -117.5v-110q0 -33 -19.5 -50.5t-39.5 -17.5t-116.5 29 t-172.5 29q-127 0 -127 -88q0 -43 53 -78t129 -71t153 -84t130 -141t53 -220zM621 1735h88q27 0 39 -19.5t0 -40.5l-95 -174q-27 -51 -84 -51h-231q-59 0 -84 51l-94 174q-12 20 0 40t39 20h88q55 0 80 -31l86 -102l88 102q25 31 80 31z" glyph-name="Scaron" horiz-adv-x="919" unicode="Š"/><glyph d="M743 334q0 -176 -116.5 -265t-307.5 -89q-123 0 -211 41.5t-88 109.5v92q0 33 19 51.5t43 18.5t98 -23.5t139 -23.5q90 0 91 65q0 46 -98 93t-166 103t-97 116.5t-29 134.5q0 147 98.5 233t260.5 86t264 -61q45 -29 45 -82v-111q0 -25 -15.5 -40t-38.5 -15t-106.5 21.5 t-127.5 21.5t-46 -43q0 -25 40 -48.5t97.5 -50t115 -64.5t97 -107.5t39.5 -163.5zM614 1425q27 0 39.5 -18t-0.5 -41l-94 -174q-27 -51 -84 -51h-231q-59 0 -84 51l-94 174q-12 23 0 41t38 18h89q54 1 79 -30l86 -103l88 103q25 31 80 30h88z" glyph-name="scaron" horiz-adv-x="753" unicode="š"/><glyph d="M692 438v-370q0 -68 -67 -68h-228q-68 0 -67 68v372q0 66 -33 135l-305 703q-16 39 -6 63.5t47 24.5h231q39 0 55.5 -11.5t28.5 -43.5l172 -426l182 426q12 33 29 44t55 11h222q37 0 47 -24.5t-6 -63.5l-316 -703q-41 -86 -41 -137zM479 1649v-133q0 -53 -53 -54h-143 q-51 0 -52 54v133q0 51 52 51h143q53 0 53 -51zM807 1649v-133q0 -53 -53 -54h-144q-51 0 -51 54v133q0 51 51 51h144q53 0 53 -51z" glyph-name="Ydieresis" horiz-adv-x="1040" unicode="Ÿ"/><glyph d="M866 0h-786q-70 0 -70 70v133q0 70 23 108l454 754h-387q-70 0 -69 68v163q0 70 69 70h742q70 0 69 -70v-133q0 -70 -22 -108l-457 -754h434q70 0 70 -68v-163q0 -70 -70 -70zM639 1735h88q27 0 39 -19.5t0 -40.5l-94 -174q-25 -51 -84 -51h-232q-57 0 -84 51l-94 174 q-12 20 0 40t39 20h88q55 0 80 -31l86 -102l88 102q25 31 80 31z" glyph-name="Zcaron" horiz-adv-x="946" unicode="Ž"/><glyph d="M741 279q68 0 68 -70v-139q0 -70 -68 -70h-673q-68 0 -68 70v118q0 55 47 121l324 469h-283q-68 0 -68 70v139q0 70 68 70h623q68 0 67 -70v-119q0 -54 -47 -120l-323 -469h333zM659 1425q27 0 39.5 -18t-0.5 -41l-94 -174q-27 -51 -84 -51h-231q-59 0 -84 51l-94 174 q-12 23 0 41t39 18h88q54 1 79 -30l86 -103l89 103q25 31 79 30h88z" glyph-name="zcaron" horiz-adv-x="808" unicode="ž"/><glyph d="M113 1057h22l10 71q18 127 114.5 194t194.5 67t159 -21.5t53 -77.5l-19 -131q-8 -57 -59 -57h-29q-57 0 -72 -45h84q68 0 58 -68l-19 -143q-8 -68 -78 -68h-88l-135 -956q-10 -68 -78 -68h-211q-70 0 -59 68l135 956h-22q-68 0 -58 68l19 143q10 68 78 68z" glyph-name="florin" horiz-adv-x="667" unicode="ƒ"/><glyph d="M53 1141q-27 0 -39 19.5t0 39.5l95 174q27 51 84 51h231q59 0 84 -51l94 -174q12 -20 0 -39.5t-39 -19.5h-88q-55 0 -80 30l-88 103l-86 -103q-25 -31 -80 -30h-88z" glyph-name="circumflex" unicode="ˆ"/><glyph d="M561 1425q27 0 39 -18t0 -41l-94 -174q-27 -51 -84 -51h-232q-59 0 -84 51l-94 174q-12 23 0.5 41t38.5 18h88q55 1 80 -30l86 -103l88 103q25 31 80 30h88z" glyph-name="caron" unicode="ˇ"/><glyph d="M307.5 1133q-110.5 0 -191.5 70.5t-81 178.5q0 25 24 25h95q20 0 26 -16q29 -90 127.5 -90.5t126.5 90.5q6 16 27 16h94q25 0 25 -25q0 -109 -81 -179t-191.5 -70z" glyph-name="breve" unicode="˘"/><glyph d="M432 1339v-133q0 -53 -53 -53h-143q-51 0 -52 53v133q0 51 52 52h143q53 -1 53 -52z" glyph-name="dotaccent" unicode="˙"/><glyph d="M530 1333q0 -92 -65.5 -157.5t-157.5 -65.5t-157.5 65.5t-65.5 157.5t65.5 157.5t157.5 65.5t157.5 -65.5t65.5 -157.5zM225 1333q0 -35 24.5 -58.5t57.5 -23.5t57.5 23.5t24.5 58.5t-24.5 58.5t-57.5 23.5t-57.5 -23.5t-24.5 -58.5z" glyph-name="ring" unicode="˚"/><glyph d="M388 -377q-102 0 -180.5 52.5t-78.5 143.5t58.5 147.5t138.5 56.5h102v-23q-53 -4 -77.5 -38t-24.5 -71q0 -88 108 -96q39 -2 43 -41l8 -92q5 -39 -97 -39z" glyph-name="ogonek" unicode="˛"/><glyph d="M608 1368q0 -90 -46 -155.5t-116 -65.5t-144 37t-96 37t-36 -15.5t-14 -36t-33 -20.5h-82q-35 0 -35 45q0 96 49 157.5t123 61.5t142.5 -39t89 -39t35 15.5t14.5 40.5q0 20 30 20h84q35 0 35 -43z" glyph-name="tilde" unicode="˜"/><glyph d="M41 1141q-27 0 -37 17.5t-2 41.5l33 174q10 51 76 51h151q29 0 35 -18.5t-8 -38.5l-127 -197q-20 -31 -80 -30h-41zM356 1141q-49 0 -39 59l33 174q10 51 76 51h152q29 0 34.5 -18.5t-8.5 -38.5l-127 -197q-20 -31 -80 -30h-41z" glyph-name="hungarumlaut" unicode="˝"/><glyph d="M862 483h-741q-70 0 -70 68v98q0 70 70 70h741q70 0 70 -70v-98q0 -68 -70 -68z" glyph-name="endash" horiz-adv-x="983" unicode="–"/><glyph d="M1395 483h-1274q-70 0 -70 68v98q0 70 70 70h1274q70 0 69 -70v-98q1 -68 -69 -68z" glyph-name="emdash" horiz-adv-x="1515" unicode="—"/><glyph d="M295 1192q68 0 67 -68v-172q0 -68 -67 -67h-186q-68 0 -68 67v162q0 51 29 92l98 144q27 39 80 39h35q25 0 30.5 -17.5t-4.5 -36.5l-76 -143h62z" glyph-name="quoteleft" horiz-adv-x="403" unicode="‘"/><glyph d="M109 1059q-68 0 -68 67v172q0 68 68 68h186q68 0 67 -68v-161q0 -51 -28 -93l-98 -143q-27 -39 -80 -39h-35q-25 0 -31 17.5t4 35.5l76 144h-61z" glyph-name="quoteright" horiz-adv-x="403" unicode="’"/><glyph d="M109 0q-68 0 -68 68v172q0 68 68 67h186q68 0 67 -67v-162q0 -51 -28 -92l-98 -144q-27 -39 -80 -39h-35q-25 0 -31 17.5t4 36.5l76 143h-61z" glyph-name="quotesinglbase" horiz-adv-x="403" unicode="‚"/><glyph d="M690 1192q68 0 68 -68v-172q0 -68 -68 -67h-186q-68 0 -68 67v162q0 51 29 92l98 144q27 39 80 39h35q25 0 31 -17.5t-4 -36.5l-76 -143h61zM295 1192q68 0 67 -68v-172q0 -68 -67 -67h-186q-68 0 -68 67v162q0 51 29 92l98 144q27 39 80 39h35q25 0 30.5 -17.5 t-4.5 -36.5l-76 -143h62z" glyph-name="quotedblleft" horiz-adv-x="798" unicode="“"/><glyph d="M109 1059q-68 0 -68 67v172q0 68 68 68h186q68 0 67 -68v-161q0 -51 -28 -93l-98 -143q-27 -39 -80 -39h-35q-25 0 -31 17.5t4 35.5l76 144h-61zM504 1059q-68 0 -68 67v172q0 68 68 68h186q68 0 68 -68v-161q0 -51 -29 -93l-98 -143q-27 -39 -80 -39h-35q-25 0 -31 17.5 t4 35.5l76 144h-61z" glyph-name="quotedblright" horiz-adv-x="798" unicode="”"/><glyph d="M109 0q-68 0 -68 68v172q0 68 68 67h186q68 0 67 -67v-162q0 -51 -28 -92l-98 -144q-27 -39 -80 -39h-35q-25 0 -31 17.5t4 36.5l76 143h-61zM504 0q-68 0 -68 68v172q0 68 68 67h186q68 0 68 -67v-162q0 -51 -29 -92l-98 -144q-27 -39 -80 -39h-35q-25 0 -31 17.5 t4 36.5l76 143h-61z" glyph-name="quotedblbase" horiz-adv-x="798" unicode="„"/><glyph d="M98 799q-68 0 -67 67v123q0 68 67 68h113l-10 239q-4 70 61 70h242q63 0 59 -70l-10 -239h113q68 0 67 -68v-123q0 -68 -67 -67h-123l-41 -977q-2 -68 -68 -68h-102q-66 0 -70 68l-41 977h-123z" glyph-name="dagger" horiz-adv-x="763" unicode="†"/><glyph d="M98 469q-68 0 -67 68v122q0 68 67 68h125l-2 72h-123q-68 0 -67 67v123q0 68 67 68h113l-10 239q-4 70 61 70h242q63 0 59 -70l-10 -239h113q68 0 67 -68v-123q0 -68 -67 -67h-123l-4 -72h127q68 0 67 -68v-122q0 -68 -67 -68h-138l-26 -647q-2 -68 -68 -68h-102 q-66 0 -70 68l-26 647h-138z" glyph-name="daggerdbl" horiz-adv-x="763" unicode="‡"/><glyph d="M41 682q0 100 71.5 172t172 72t172 -72t71.5 -172t-71.5 -172t-172 -72t-172 72t-71.5 172z" glyph-name="bullet" horiz-adv-x="569" unicode="•"/><glyph d="M362 240v-172q0 -68 -67 -68h-184q-70 0 -70 68v172q0 68 70 67h184q67 1 67 -67zM909 240v-172q0 -68 -67 -68h-185q-70 0 -69 68v172q0 68 69 67h185q67 1 67 -67zM1456 240v-172q0 -68 -67 -68h-185q-70 0 -69 68v172q0 68 69 67h185q67 1 67 -67z" glyph-name="ellipsis" horiz-adv-x="1497" unicode="…"/><glyph d="M1122 551v-283q0 -94 72 -94t72 94v283q0 94 -72 94t-72 -94zM1491 551v-283q0 -137 -81 -211.5t-216 -74.5t-216 74.5t-81 211.5v283q0 137 81 212t216 75t216 -75t81 -212zM256 1100v-283q0 -94 72 -94t71 94v283q0 94 -69 94q-74 0 -74 -94zM625 1100v-283 q0 -137 -81 -212t-216 -75t-216 75t-81 212v283q0 137 81 211.5t216 74.5t216 -74.5t81 -211.5zM514 0h-86q-31 0 -45 19.5t0 48.5l535 1230q31 68 90 68h86q35 0 47 -18.5t-2 -49.5l-535 -1230q-31 -68 -90 -68zM1769 551v-283q0 -94 72 -94t72 94v283q0 94 -72 94t-72 -94 zM2138 551v-283q0 -137 -81 -211.5t-216 -74.5t-216 74.5t-81 211.5v283q0 137 81 212t216 75t216 -75t81 -212z" glyph-name="perthousand" horiz-adv-x="2168" unicode="‰"/><glyph d="M266 762h199q20 0 29.5 -14.5t-2.5 -36.5l-177 -330l177 -330q12 -23 2.5 -37t-29.5 -14h-199q-31 0 -49 31l-172 297q-31 53 0 106l172 297q18 31 49 31z" glyph-name="guilsinglleft" horiz-adv-x="530" unicode="‹"/><glyph d="M264 0h-198q-20 0 -28.5 14.5t1.5 36.5l176 330l-176 330q-10 23 -2 37t29 14h198q31 0 49 -31l172 -297q31 -53 0 -106l-172 -297q-18 -31 -49 -31z" glyph-name="guilsinglright" horiz-adv-x="530" unicode="›"/><glyph d="M129 0h-86q-31 0 -45 19.5t0 48.5l534 1230q31 68 91 68h86q35 0 47 -18.5t-2 -49.5l-535 -1230q-31 -68 -90 -68z" glyph-name="fraction" horiz-adv-x="751" unicode="⁄"/><glyph d="M256 1098v-283q0 -94 72 -94t71 94v283q0 94 -69 94q-74 0 -74 -94zM625 1098v-283q0 -137 -81 -212t-216 -75t-216 75t-81 212v283q0 137 81 211.5t216 74.5t216 -74.5t81 -211.5z" glyph-name="uni2070" horiz-adv-x="655" unicode="⁰"/><glyph d="M543 637v-47q0 -43 -43 -43h-140q-43 0 -43 43v47q0 23 -22 22h-248q-47 0 -47 41v76q0 29 14 58l240 489q20 43 72 43h174q43 0 43 -43v-459q0 -23 22 -22h8q43 0 43 -43v-97q0 -43 -43 -43h-8q-22 1 -22 -22zM227 842h68q23 0 22 22v209l-100 -209q-8 -22 10 -22z" glyph-name="uni2074" horiz-adv-x="616" unicode="⁴"/><glyph d="M248 1157v-31q0 -20 18 -20q125 -10 201 -84t76 -211t-92.5 -210t-229.5 -73q-201 0 -201 82v74q0 47 50 47q12 0 57 -9t72 -9q121 0 120 102q0 106 -108 107q-29 0 -68 -9.5t-55 -9.5q-49 0 -49 47v373q0 43 43 43h377q43 0 43 -43v-102q0 -41 -43 -41h-189 q-22 0 -22 -23z" glyph-name="uni2075" horiz-adv-x="563" unicode="⁵"/><glyph d="M614 895v-80q0 -137 -80 -212t-216 -75t-217 75t-81 212v82q0 109 48.5 227.5t110 193.5t104.5 75h92q37 0 37 -29q0 -12 -33 -62t-66 -118q137 0 219 -76t82 -213zM246 895v-80q0 -94 72 -94t71 94v80q1 94 -71 94t-72 -94z" glyph-name="uni2076" horiz-adv-x="634" unicode="⁶"/><glyph d="M231 547h-137q-49 0 -35 43l224 567q8 23 -13 23h-227q-43 0 -43 41v102q0 43 43 43h434q45 0 45 -43v-80q0 -24 -14 -63l-217 -590q-16 -43 -60 -43z" glyph-name="uni2077" horiz-adv-x="522" unicode="⁷"/><glyph d="M308 528q-130 0 -214 70t-84 194t92 195q-66 66 -66 162t70 165.5t202 69.5t202 -69.5t70 -165.5t-66 -162q90 -71 90 -195t-83 -194t-213 -70zM309 713q70 0 70 87t-72 87t-71 -88q0 -39 19 -62.5t54 -23.5zM362 1132.5q0 67.5 -54 67.5t-54 -67.5t54 -67.5t54 67.5z " glyph-name="uni2078" unicode="⁸"/><glyph d="M20 1028v80q0 135 81 210t216 75t216 -75t81 -210v-76q0 -109 -48 -230.5t-108.5 -197.5t-101.5 -76h-94q-37 0 -37 33q-1 15 35 67t64 113q-139 0 -221.5 74t-82.5 213zM389 1028v80q0 92 -72 92t-71 -92v-80q0 -96 72 -96t71 96z" glyph-name="uni2079" horiz-adv-x="634" unicode="⁹"/><glyph d="M256 551v-283q0 -94 72 -94t71 94v283q0 94 -69 94q-74 0 -74 -94zM625 551v-283q0 -137 -81 -211.5t-216 -74.5t-216 74.5t-81 211.5v283q0 137 81 212t216 75t216 -75t81 -212z" glyph-name="uni2080" horiz-adv-x="655" unicode="₀"/><glyph d="M315 705v-662q0 -43 -41 -43h-141q-43 0 -43 43v575q0 23 -22 23h-25q-43 0 -43 41v94q0 43 43 43h160q63 0 87.5 -28.5t24.5 -85.5z" glyph-name="uni2081" horiz-adv-x="366" unicode="₁"/><glyph d="M39 680v72q0 86 197 86q147 0 229 -63.5t82 -178.5q0 -61 -33 -114.5t-64.5 -81t-87.5 -64.5q-90 -66 -102 -89t-12 -43t18 -20h226q45 0 45 -43v-98q0 -43 -45 -43h-439q-43 0 -43 43v80q0 150 66.5 225.5t159.5 138.5q93 62 94 109q0 57 -105 57l-135 -18q-51 0 -51 45 z" glyph-name="uni2082" horiz-adv-x="567" unicode="₂"/><glyph d="M190 346h-38q-45 0 -46 43v72q0 43 46 43h43q92 0 92 78q0 35 -27.5 53t-61.5 18t-69 -8t-45 -8q-51 0 -51 45v70q0 86 184 86q133 0 209 -62.5t76 -167.5t-80 -172q115 -66 115 -198q0 -106 -77 -181t-216 -75q-90 0 -167 31.5t-77 78.5v70q0 47 49 47q16 0 67.5 -20.5 t96.5 -20.5t71.5 25.5t26.5 62.5t-33 63.5t-88 26.5z" glyph-name="uni2083" horiz-adv-x="557" unicode="₃"/><glyph d="M543 90v-47q0 -43 -43 -43h-140q-43 0 -43 43v47q0 23 -22 23h-248q-47 0 -47 41v75q0 29 14 58l240 489q20 43 72 43h174q43 0 43 -43v-459q0 -23 22 -22h8q43 0 43 -43v-96q0 -43 -43 -43h-8q-22 0 -22 -23zM227 295h68q23 0 22 22v209l-100 -209q-13 -22 10 -22z" glyph-name="uni2084" horiz-adv-x="616" unicode="₄"/><glyph d="M248 610v-30q0 -20 18 -21q125 -10 201 -84t76 -211t-92.5 -209.5t-229.5 -72.5q-201 0 -201 81v74q0 47 50 47q12 0 57 -9t72 -9q121 0 120 102q0 106 -108 107q-29 0 -68 -9.5t-55 -9.5q-49 0 -49 47v373q0 43 43 43h377q43 0 43 -43v-102q0 -41 -43 -41h-189 q-22 0 -22 -23z" glyph-name="uni2085" horiz-adv-x="563" unicode="₅"/><glyph d="M614 348v-80q0 -137 -80 -211.5t-216 -74.5t-217 74.5t-81 211.5v82q0 109 48.5 227.5t110 193.5t104.5 75h92q37 0 37 -29q0 -10 -33 -60t-66 -120q137 0 219 -76t82 -213zM246 348v-80q0 -94 72 -94t71 94v80q1 94 -71 94t-72 -94z" glyph-name="uni2086" horiz-adv-x="634" unicode="₆"/><glyph d="M231 0h-137q-49 0 -35 43l224 567q8 23 -13 23h-227q-43 0 -43 41v102q0 43 43 43h434q45 0 45 -43v-80q0 -24 -14 -63l-217 -590q-16 -43 -60 -43z" glyph-name="uni2087" horiz-adv-x="522" unicode="₇"/><glyph d="M308 -18q-130 0 -214 69.5t-84 193.5t92 195q-66 66 -66 163t70 166t202 69t202 -70t70 -166t-66 -162q90 -72 90 -196t-83 -193t-213 -69zM309 166q70 0 70 87t-72 87t-71 -88q0 -39 19 -62.5t54 -23.5zM362 585.5q0 67.5 -54 67.5t-54 -67.5t54 -67.5t54 67.5z" glyph-name="uni2088" unicode="₈"/><glyph d="M20 481v80q0 135 81 210t216 75t216 -75t81 -210v-76q0 -109 -48 -230.5t-108.5 -197t-101.5 -75.5h-94q-37 0 -37 32q-1 14 35 66t64 115q-139 0 -221.5 73.5t-82.5 212.5zM389 481v80q0 92 -72 92t-71 -92v-80q0 -96 72 -96t71 96z" glyph-name="uni2089" horiz-adv-x="634" unicode="₉"/><glyph d="M139 905v23q0 229 132 349t356 120q166 0 263 -37t97 -96v-101q0 -76 -80 -76q-16 0 -89.5 15.5t-151.5 15.5t-127.5 -49t-51.5 -164h213q70 0 70 -69v-48q0 -68 -70 -67h-213v-74h152q70 0 70 -69v-48q0 -68 -70 -67h-152q2 -115 51.5 -165t127.5 -50t151.5 15.5 t89.5 15.5q80 0 80 -76v-101q0 -59 -97 -96t-263 -37q-223 0 -355.5 120t-132.5 349v25h-69q-70 0 -70 67v48q0 70 70 69h69v74h-69q-70 0 -70 67v48q0 70 70 69h69z" glyph-name="Euro" horiz-adv-x="1007" unicode="€"/><glyph d="M43 1366h360q33 0 33 -33v-73q0 -33 -33 -33h-77q-16 0 -17 -17v-428q0 -33 -33 -32h-104q-33 0 -33 32v428q0 16 -16 17h-80q-33 0 -33 33v73q0 33 33 33zM782 889h-20q-20 0 -35 24l-65 123v-254q0 -33 -33 -32h-101q-33 0 -32 32v551q0 33 32 33h105q29 0 43 -27 l98 -186l103 186q12 27 43 27h104q31 0 31 -33v-551q0 -33 -31 -32h-106q-33 0 -33 32v256l-68 -125q-15 -24 -35 -24z" glyph-name="trademark" horiz-adv-x="1095" unicode="™"/><glyph d="M692 602v-108q0 -57 -57 -58h-537q-57 0 -57 58v108q0 57 57 57h537q57 0 57 -57z" glyph-name="minus" horiz-adv-x="733" unicode="−"/><glyph d="M41 563v123q0 43 57 68l537 237q27 12 42 -2t15 -43v-108q0 -49 -57 -74l-365 -139l365 -140q57 -25 57 -73v-109q0 -29 -15 -43t-42 -2l-537 238q-57 24 -57 67zM692 166v-109q0 -57 -57 -57h-537q-57 0 -57 57v109q0 57 57 57h537q57 0 57 -57z" glyph-name="lessequal" horiz-adv-x="733" unicode="≤"/><glyph d="M692 686v-123q0 -43 -57 -67l-537 -238q-27 -12 -42 2t-15 43v109q0 49 57 73l365 140l-365 139q-57 25 -57 74v108q0 29 15.5 43.5t41.5 1.5l537 -237q57 -25 57 -68zM41 57v109q0 57 57 57h537q57 0 57 -57v-109q0 -57 -57 -57h-537q-57 0 -57 57z" glyph-name="greaterequal" horiz-adv-x="733" unicode="≥"/><glyph d="M1096 41q-61 0 -113 47q31 -53 74 -96q-33 -12 -59 -12t-68 14q2 -12 18 -33q-6 -2 -28 -2t-37 16q3 -15 17.5 -36t17.5 -23q-20 -4 -46 -4t-66 20.5t-54 40.5q12 -43 73 -143q-12 -2 -32 -2q-98 0 -172 94q0 -63 53 -176q-61 2 -113 53q29 -51 62 -82q-29 -14 -70 -14 t-78 37l23 -51q-6 -2 -23 -2q-67 0 -108 41q-73 -32 -151.5 37t-78.5 282q0 113 34 181t50.5 176t87.5 212q-49 40 -49 104t29.5 120.5t66.5 79.5q-20 12 -62 12t-134 -19q0 51 51 116t106 79q-72 61 -73 201q27 -27 47 -37q-23 104 -23 116t2 15q14 -39 78 -68 q0 4 -12 50.5t-12 67.5t2 28q14 -27 54 -58.5t60 -33.5q-10 61 -10 86q0 82 47 106q0 -29 20.5 -68.5t47.5 -54.5q6 29 47 61.5t84 53.5l-12 -88q0 -18 8 -27q14 8 37.5 43t23.5 47q25 -14 31 -92l2 -24q16 0 42 12t30 20q0 -12 -6.5 -51t-6.5 -41q82 25 99 41 q0 -37 -35 -120t-88 -91q84 -43 161.5 -162.5t84.5 -279.5q4 -86 36.5 -211t32.5 -131q23 -127 92 -215q-66 -29 -116 2q-8 -8 -19 -39q0 -39 57 -121q-25 -4 -34 -4zM182 7q0 -81 38 -166t108 -85h8q-47 35 -75 151t-28 219q-1 103 19 140t20 72t-12 49l2 -20 q0 -29 -34 -114t-40 -125t-6 -121zM938 696l-6 -309q0 -211 33 -258l14 31q45 -70 86 -80q-49 57 -67.5 226t-26.5 314.5t-39 157.5q6 -23 6 -82zM715 913q0 -16 -19.5 -62t-27.5 -48l-4 61v19q-10 -27 -42 -75t-53 -67q0 16 13 50q-12 -12 -179 -160l-8 28 q-82 -51 -82 -206q0 -51 9 -97q-37 -45 -37 -135t11 -156.5t21 -84.5l-28 8l2 -4v-4q68 -233 155 -256q-49 76 -81.5 182t-32.5 142t4 44q10 -18 25.5 -50t35.5 -42q8 -76 58.5 -167t101.5 -99q-43 47 -103.5 223t-60.5 306t35 202q-2 -20 -2 -74q0 -164 40 -325.5 t136 -253.5q-25 53 -44 173.5t-19 187.5t2 83q2 -47 29.5 -98.5t50.5 -69.5q-4 -20 -5 -29q0 -59 47.5 -116.5t90.5 -69.5q-135 236 -136 479q0 111 37 187q2 -20 11.5 -159.5t33.5 -170.5v29q0 57 21 79q2 -12 17.5 -122.5t40 -169t75.5 -74.5q-82 125 -82 341t80 406 l-4 -45q0 -16 8 -26q-16 -82 -16 -108t6 -44q20 -41 20 -94t-16 -87t-16 -101q0 -139 59 -187q-8 33 -8 64v14q25 -59 104 -70q-104 113 -104 275l12 178l-2 19l4 221q0 184 -98 337q-45 70 -70.5 89.5t-66.5 21.5q106 -55 106 -258q3 9 21 33q23 -33 23 -126t-23 -140 q-6 55 -39 151q0 -49 -26 -107.5t-58 -74.5l-11 84q59 33 60 149q0 12 -1 27.5t-1 19.5zM311 733q0 -37 6 -51l52 23q-21 36 11 104t32 84q-35 -12 -68 -67.5t-33 -92.5zM426 752q0 8 27 88q-16 -8 -35 -39t-19 -47t4 -25l25 12q-2 3 -2 11zM488.5 1203.5 q-73.5 -53.5 -103.5 -83.5q16 6 99.5 63.5t193.5 57.5q-23 16 -69.5 16t-120 -53.5zM596 860h10q20 20 41 66t21 68t-4 38q-4 -45 -25 -87t-41 -54q-53 -26 -53 -49q29 18 51 18zM426 952q0 20 -55 20t-78 -11q70 -18 119 -19q14 2 14 10zM436 1019q0 -9 12 -21t19.5 -11.5 t7.5 8.5q0 23 -37 35q-2 -2 -2 -11zM217 967q41 25 90 25t75 -2.5t30 -2.5q-31 45 -50 55q0 23 23 54q-53 -4 -106.5 -44t-61.5 -85zM649 1101q0 24 -20 36q4 -8 4 -19q0 -45 -37 -65l6 -17q18 4 32.5 22.5t14.5 42.5zM598 1106q0 8 -4 16q-8 8 -12 8t-4 -6v-2l2 -14 q0 -18 -16.5 -32.5t-28.5 -14.5l20 -6h2q41 8 41 51zM547 1112q-1 16 -23 16t-22 -20q6 -23 17 -25t14.5 0t7.5 10.5t4 10.5q2 2 2 8zM560 936q24 0 24 22q0 14 -24 14t-23 -16q-1 -20 23 -20zM490 905.5q0 -16.5 19 -16.5t19 16.5t-19 16.5t-19 -16.5zM1014 743 q0 104 -67.5 236.5t-170.5 171.5q86 -111 96 -150l15 5q66 -66 106 -234q0 -367 66 -561l18 47q56 -33 76 -33q-100 127 -143 477q4 25 4 41z" glyph-name="glyph255" horiz-adv-x="1482"/><glyph d="M1112 551v-283q0 -94 72 -94t71 94v283q0 94 -69 94q-74 0 -74 -94zM1481 551v-283q0 -137 -81 -211.5t-216 -74.5t-216 74.5t-81 211.5v283q0 137 81 212t216 75t216 -75t81 -212zM246 1100v-283q0 -94 72 -94t71 94v283q1 94 -71 94t-72 -94zM614 1100v-283 q0 -137 -80 -212t-216 -75t-217 75t-81 212v283q0 137 81 211.5t216 74.5t216 -74.5t81 -211.5zM504 0h-86q-31 0 -45.5 19.5t0.5 48.5l534 1230q31 68 90 68h86q35 0 47 -18.5t-2 -49.5l-534 -1230q-31 -68 -90 -68zM1757 551v-283q0 -94 72 -94t72 94v283q0 94 -72 94 t-72 -94zM2126 551v-283q0 -137 -81 -211.5t-216 -74.5t-216 74.5t-81 211.5v283q0 137 81 212t216 75t216 -75t81 -212z" glyph-name="glyph256" horiz-adv-x="2146"/><glyph d="M449 0h-213q-80 0 -89 68l-155 1222q-10 76 57 76h240q37 0 62.5 -18.5t27.5 -51.5l55 -624l166 407q20 49 72 49h47q55 0 72 -49l155 -407l60 624q6 70 90 70h229q66 0 57 -70l-165 -1228q-8 -68 -89 -68h-202q-53 0 -80 72l-156 407l-168 -411q-27 -68 -73 -68z" glyph-name="W.aalt" horiz-adv-x="1374"/><glyph d="M471 0h-184q-57 0 -70 53l-223 948q-12 55 43 56h242q59 0 69 -56l90 -489l113 365q12 37 57 36h84q45 0 58 -36l104 -367l94 491q6 55 70 56h229q55 0 43 -56l-223 -948q-12 -53 -70 -53h-176q-25 0 -43 17.5t-24 37.5l-107 381l-121 -383q-20 -53 -55 -53z" glyph-name="w.aalt" horiz-adv-x="1284"/><glyph d="M899 394q0 -146 -94 -255.5t-244 -146.5v-103q0 -68 -69 -67h-86q-68 0 -68 67v86q-184 18 -261 81t-77 122v103q0 74 66 73q27 0 124 -41t180 -41t127 36t44 96t-53.5 101.5t-129 77t-152.5 83t-130 134t-53 220.5t85 230t230 128v97q0 70 68 69h86q70 0 69 -69v-86 q115 -14 205 -60.5t90 -114.5v-110q0 -33 -19.5 -50.5t-39.5 -17.5t-116.5 29t-172.5 29q-127 0 -127 -88q0 -43 53 -78t129 -71t153 -84t130 -140.5t53 -238.5z" glyph-name="dollar.aalt" horiz-adv-x="919"/></font>
</defs>
</svg>
